<?xml version="1.0" encoding="utf-8"?>
<!-- Generator: Adobe Illustrator 19.0.0, SVG Export Plug-In . SVG Version: 6.00 Build 0)  -->
<svg version="1.1" id="Layer_1" xmlns="http://www.w3.org/2000/svg" xmlns:xlink="http://www.w3.org/1999/xlink" x="0px" y="0px"
	 viewBox="0 0 136 165.2" style="enable-background:new 0 0 136 165.2;" xml:space="preserve">
<style type="text/css">
	.st0{fill:none;stroke:#00628B;stroke-width:2.169;stroke-miterlimit:10;}
	.st1{fill:none;stroke:#00628B;stroke-width:1.5724;stroke-miterlimit:10;}
	.st2{fill:none;stroke:#00628B;stroke-width:1.5337;stroke-miterlimit:10;}
	.st3{fill:#00628B;}
	.st4{fill:#F49600;}
	.st5{fill:none;stroke:#00628B;stroke-width:2;stroke-miterlimit:10;}
	.st6{fill:#009FE3;}
</style>
<rect id="XMLID_1_" width="136" height="165.2"/>
<line id="XMLID_18_" class="st0" x1="-505.4" y1="150.2" x2="-104.3" y2="150.2"/>
<line id="XMLID_20_" class="st1" x1="-474.9" y1="76.5" x2="-397.6" y2="153.9"/>
<line id="XMLID_22_" class="st2" x1="-401.3" y1="150.2" x2="-474.9" y2="223.8"/>
<circle id="XMLID_4_" class="st3" cx="-401.3" cy="150.2" r="15.1"/>
<circle id="XMLID_2_" class="st3" cx="-474.9" cy="76.5" r="9.6"/>
<circle id="XMLID_6_" class="st3" cx="-505.4" cy="150.2" r="9.6"/>
<circle id="XMLID_7_" class="st3" cx="-474.9" cy="223.8" r="9.6"/>
<circle id="XMLID_10_" class="st3" cx="-104.3" cy="150.2" r="9.6"/>
<circle id="XMLID_3_" class="st0" cx="-401.3" cy="150.2" r="56.5"/>
<g id="XMLID_8_">
	<path id="XMLID_9_" class="st3" d="M-330.3,104.4h5l6.7,19.1h0.1l6.6-19.1h5v36.1h-5.2v-22h-0.1l-5.1,15.5h-2.6l-5.1-15.5h-0.1v22
		h-5.2V104.4z"/>
	<path id="XMLID_12_" class="st3" d="M-285.4,114.8h-5.2v-1.2c0-1.2-0.3-2.2-0.8-3.1c-0.6-0.9-1.5-1.3-2.8-1.3
		c-0.7,0-1.3,0.1-1.8,0.4c-0.5,0.3-0.8,0.6-1.1,1c-0.3,0.4-0.4,0.9-0.5,1.5c-0.1,0.6-0.2,1.1-0.2,1.8c0,0.7,0,1.3,0.1,1.8
		c0.1,0.5,0.2,0.9,0.4,1.3c0.2,0.4,0.5,0.7,0.9,0.9c0.4,0.3,0.9,0.5,1.6,0.8l4,1.6c1.2,0.4,2.1,1,2.8,1.5c0.7,0.6,1.3,1.3,1.7,2.1
		c0.4,0.8,0.7,1.7,0.8,2.7c0.1,1,0.2,2.2,0.2,3.5c0,1.5-0.2,2.9-0.5,4.2c-0.3,1.3-0.8,2.4-1.5,3.4c-0.7,0.9-1.6,1.7-2.8,2.2
		s-2.6,0.8-4.2,0.8c-1.3,0-2.4-0.2-3.5-0.7c-1.1-0.4-2-1-2.8-1.8c-0.8-0.8-1.4-1.7-1.9-2.7c-0.5-1-0.7-2.2-0.7-3.4v-1.9h5.2v1.6
		c0,0.9,0.3,1.8,0.8,2.6c0.6,0.8,1.5,1.1,2.8,1.1c0.9,0,1.6-0.1,2.1-0.4c0.5-0.3,0.9-0.6,1.1-1.1c0.3-0.5,0.4-1,0.5-1.7
		c0.1-0.7,0.1-1.4,0.1-2.2c0-0.9,0-1.7-0.1-2.3c-0.1-0.6-0.2-1.1-0.4-1.5c-0.2-0.4-0.5-0.7-0.9-0.9c-0.4-0.2-0.9-0.5-1.5-0.8
		l-3.7-1.5c-2.2-0.9-3.7-2.1-4.5-3.6c-0.8-1.5-1.1-3.4-1.1-5.7c0-1.4,0.2-2.6,0.6-3.9c0.4-1.2,0.9-2.3,1.7-3.1
		c0.7-0.9,1.6-1.6,2.8-2.1c1.1-0.5,2.4-0.8,3.9-0.8c1.3,0,2.5,0.2,3.5,0.7c1.1,0.5,2,1.1,2.7,1.9c0.8,0.8,1.3,1.6,1.8,2.6
		s0.6,2,0.6,3V114.8z"/>
	<path id="XMLID_14_" class="st3" d="M-281.7,123.9h15.3v5.2h-15.3V123.9z"/>
	<path id="XMLID_16_" class="st3" d="M-245,114.8h-5.2v-1.2c0-1.2-0.3-2.2-0.8-3.1c-0.6-0.9-1.5-1.3-2.8-1.3c-0.7,0-1.3,0.1-1.8,0.4
		c-0.5,0.3-0.8,0.6-1.1,1c-0.3,0.4-0.4,0.9-0.5,1.5c-0.1,0.6-0.2,1.1-0.2,1.8c0,0.7,0,1.3,0.1,1.8c0.1,0.5,0.2,0.9,0.4,1.3
		c0.2,0.4,0.5,0.7,0.9,0.9c0.4,0.3,0.9,0.5,1.6,0.8l4,1.6c1.2,0.4,2.1,1,2.8,1.5c0.7,0.6,1.3,1.3,1.7,2.1c0.4,0.8,0.7,1.7,0.8,2.7
		c0.1,1,0.2,2.2,0.2,3.5c0,1.5-0.2,2.9-0.5,4.2c-0.3,1.3-0.8,2.4-1.5,3.4c-0.7,0.9-1.6,1.7-2.8,2.2s-2.6,0.8-4.2,0.8
		c-1.3,0-2.4-0.2-3.5-0.7c-1.1-0.4-2-1-2.8-1.8c-0.8-0.8-1.4-1.7-1.9-2.7c-0.5-1-0.7-2.2-0.7-3.4v-1.9h5.2v1.6
		c0,0.9,0.3,1.8,0.8,2.6c0.6,0.8,1.5,1.1,2.8,1.1c0.9,0,1.6-0.1,2.1-0.4c0.5-0.3,0.9-0.6,1.1-1.1c0.3-0.5,0.4-1,0.5-1.7
		c0.1-0.7,0.1-1.4,0.1-2.2c0-0.9,0-1.7-0.1-2.3c-0.1-0.6-0.2-1.1-0.4-1.5c-0.2-0.4-0.5-0.7-0.9-0.9c-0.4-0.2-0.9-0.5-1.5-0.8
		l-3.7-1.5c-2.2-0.9-3.7-2.1-4.5-3.6c-0.8-1.5-1.1-3.4-1.1-5.7c0-1.4,0.2-2.6,0.6-3.9c0.4-1.2,0.9-2.3,1.7-3.1
		c0.7-0.9,1.6-1.6,2.8-2.1c1.1-0.5,2.4-0.8,3.9-0.8c1.3,0,2.5,0.2,3.5,0.7c1.1,0.5,2,1.1,2.7,1.9c0.8,0.8,1.3,1.6,1.8,2.6
		s0.6,2,0.6,3V114.8z"/>
	<path id="XMLID_21_" class="st3" d="M-237.7,109.3h-6v-4.9h17.2v4.9h-6v31.3h-5.2V109.3z"/>
	<path id="XMLID_25_" class="st3" d="M-224.3,104.4h8.3c6.1,0,9.1,3.5,9.1,10.6c0,2.1-0.3,3.9-1,5.4c-0.7,1.5-1.8,2.7-3.5,3.6
		l5.6,16.5h-5.5l-4.8-15.4h-3.1v15.4h-5.2V104.4z M-219.1,120.5h2.9c0.9,0,1.6-0.1,2.2-0.4c0.5-0.3,1-0.6,1.2-1.1
		c0.3-0.5,0.5-1.1,0.6-1.8c0.1-0.7,0.2-1.5,0.2-2.4c0-0.9-0.1-1.7-0.2-2.4c-0.1-0.7-0.3-1.3-0.6-1.8c-0.3-0.5-0.8-0.9-1.3-1.1
		c-0.6-0.2-1.3-0.4-2.3-0.4h-2.7V120.5z"/>
	<path id="XMLID_28_" class="st3" d="M-202.7,104.4h15.4v4.9h-10.3v10.6h8.9v4.9h-8.9v10.6h10.3v5.2h-15.4V104.4z"/>
	<path id="XMLID_30_" class="st3" d="M-178.1,104.4h4.3l8.1,36.1h-5.2l-1.5-7.8h-7.1l-1.5,7.8h-5.2L-178.1,104.4z M-176,114.8h-0.1
		l-2.5,13.1h5.2L-176,114.8z"/>
	<path id="XMLID_33_" class="st3" d="M-163.2,104.4h5l6.7,19.1h0.1l6.6-19.1h5v36.1h-5.2v-22h-0.1l-5.1,15.5h-2.6l-5.1-15.5h-0.1v22
		h-5.2V104.4z"/>
</g>
<g id="XMLID_112_">
	<path id="XMLID_143_" class="st4" d="M34.1,140.2c-0.9,0.5-1.8,0.9-2.8,1.1c-1,0.2-2,0.3-2.9,0.3c-1.2,0-2.3-0.2-3.3-0.6
		c-1-0.4-1.9-0.9-2.6-1.6c-0.7-0.7-1.3-1.6-1.7-2.5c-0.4-1-0.6-2.1-0.6-3.3c0-1.2,0.2-2.3,0.6-3.3c0.4-1,1-1.8,1.8-2.5
		c0.7-0.7,1.6-1.2,2.6-1.6c1-0.4,2.1-0.6,3.2-0.6c1,0,2,0.2,2.9,0.5c0.9,0.3,1.8,0.8,2.5,1.6l-1.4,1.4c-0.5-0.6-1.1-1-1.9-1.3
		c-0.7-0.3-1.5-0.5-2.3-0.5c-0.9,0-1.7,0.2-2.4,0.5c-0.7,0.3-1.4,0.8-2,1.3c-0.6,0.6-1,1.2-1.3,2c-0.3,0.8-0.5,1.6-0.5,2.5
		c0,0.9,0.2,1.8,0.5,2.5c0.3,0.8,0.7,1.5,1.3,2c0.6,0.6,1.2,1,2,1.3c0.8,0.3,1.6,0.5,2.6,0.5c0.6,0,1.3-0.1,1.9-0.2
		c0.7-0.2,1.3-0.4,1.9-0.7v-4.7h-3.5v-1.7h5.3V140.2z"/>
	<path id="XMLID_147_" class="st4" d="M42.2,126h1.8v15.3h-1.8V126z"/>
	<path id="XMLID_149_" class="st4" d="M52.2,126h3.9c0.7,0,1.5,0,2.2,0.1c0.7,0.1,1.4,0.3,2,0.6c0.6,0.3,1,0.7,1.4,1.3
		c0.4,0.6,0.5,1.3,0.5,2.3c0,1.1-0.3,2-1,2.7s-1.6,1.1-2.8,1.3l4.3,7h-2.2l-4.1-6.9H54v6.9h-1.8V126z M54,132.7h1.6c0.5,0,1,0,1.6,0
		s1-0.1,1.5-0.3c0.5-0.2,0.8-0.4,1.1-0.7s0.4-0.8,0.4-1.5c0-0.5-0.1-1-0.3-1.3c-0.2-0.3-0.5-0.6-0.9-0.8c-0.4-0.2-0.7-0.3-1.2-0.4
		c-0.4-0.1-0.9-0.1-1.3-0.1H54V132.7z"/>
	<path id="XMLID_152_" class="st4" d="M74.7,126h1.7l6.5,15.3h-2.1l-1.6-3.8h-7.6l-1.6,3.8h-2.1L74.7,126z M75.5,128.3L75.5,128.3
		l-3.2,7.5h6.2L75.5,128.3z"/>
	<path id="XMLID_155_" class="st4" d="M89.2,126h9.5v1.7H91v5.1h7.1v1.7H91v6.9h-1.8V126z"/>
	<path id="XMLID_157_" class="st4" d="M105.6,126h9.6v1.7h-7.8v4.8h7.3v1.7h-7.3v5.4h8.2v1.7h-10V126z"/>
</g>
<line id="XMLID_141_" class="st5" x1="-505.3" y1="-59.9" x2="-325.2" y2="-59.9"/>
<line id="XMLID_164_" class="st5" x1="-142.4" y1="-59.9" x2="-104.2" y2="-59.9"/>
<line id="XMLID_140_" class="st5" x1="-474.8" y1="-133.5" x2="-397.4" y2="-56.1"/>
<line id="XMLID_139_" class="st5" x1="-401.2" y1="-59.9" x2="-474.8" y2="13.7"/>
<circle id="XMLID_138_" class="st6" cx="-401.2" cy="-59.9" r="15.1"/>
<circle id="XMLID_137_" class="st6" cx="-474.8" cy="-133.5" r="9.6"/>
<circle id="XMLID_136_" class="st6" cx="-505.3" cy="-59.9" r="9.6"/>
<circle id="XMLID_135_" class="st6" cx="-474.8" cy="13.7" r="9.6"/>
<circle id="XMLID_134_" class="st6" cx="-104.2" cy="-59.9" r="9.6"/>
<circle id="XMLID_133_" class="st0" cx="-401.2" cy="-59.9" r="56.5"/>
<g id="XMLID_17_">
	<path id="XMLID_131_" class="st3" d="M-325.2-81h4.8l6.5,18.6h0.1l6.4-18.6h4.9v35.2h-5v-21.4h-0.1l-5,15.1h-2.5l-4.9-15.1h-0.1
		v21.4h-5V-81z"/>
	<path id="XMLID_129_" class="st3" d="M-281.4-70.8h-5V-72c0-1.2-0.3-2.2-0.8-3c-0.5-0.8-1.5-1.3-2.7-1.3c-0.7,0-1.3,0.1-1.7,0.4
		c-0.4,0.3-0.8,0.6-1,1c-0.2,0.4-0.4,0.9-0.5,1.4c-0.1,0.5-0.1,1.1-0.1,1.7c0,0.7,0,1.3,0.1,1.8c0,0.5,0.2,0.9,0.4,1.2
		c0.2,0.3,0.5,0.7,0.9,0.9c0.4,0.3,0.9,0.5,1.6,0.8l3.9,1.5c1.1,0.4,2,0.9,2.7,1.5c0.7,0.6,1.2,1.3,1.6,2c0.4,0.8,0.6,1.7,0.8,2.7
		c0.1,1,0.2,2.2,0.2,3.4c0,1.5-0.1,2.9-0.4,4.1c-0.3,1.3-0.8,2.4-1.5,3.3c-0.7,0.9-1.6,1.6-2.7,2.2c-1.1,0.5-2.5,0.8-4.1,0.8
		c-1.2,0-2.4-0.2-3.4-0.6c-1.1-0.4-2-1-2.7-1.8c-0.8-0.7-1.4-1.6-1.8-2.6c-0.4-1-0.7-2.1-0.7-3.3v-1.9h5v1.6c0,0.9,0.3,1.8,0.8,2.5
		c0.5,0.7,1.5,1.1,2.7,1.1c0.9,0,1.5-0.1,2-0.4c0.5-0.2,0.8-0.6,1.1-1c0.2-0.4,0.4-1,0.5-1.7c0.1-0.7,0.1-1.4,0.1-2.2
		c0-0.9,0-1.7-0.1-2.3c-0.1-0.6-0.2-1.1-0.4-1.4c-0.2-0.4-0.5-0.7-0.9-0.9c-0.4-0.2-0.9-0.5-1.5-0.7l-3.6-1.5
		c-2.2-0.9-3.6-2.1-4.4-3.5c-0.7-1.5-1.1-3.3-1.1-5.5c0-1.3,0.2-2.6,0.5-3.8c0.4-1.2,0.9-2.2,1.6-3.1c0.7-0.9,1.6-1.5,2.7-2.1
		c1.1-0.5,2.4-0.8,3.8-0.8c1.3,0,2.4,0.2,3.4,0.7c1,0.5,1.9,1.1,2.7,1.8c0.7,0.8,1.3,1.6,1.7,2.5s0.6,1.9,0.6,2.9V-70.8z"/>
	<path id="XMLID_127_" class="st3" d="M-277.9-62h14.9v5h-14.9V-62z"/>
	<path id="XMLID_125_" class="st3" d="M-242.1-70.8h-5V-72c0-1.2-0.3-2.2-0.8-3c-0.5-0.8-1.5-1.3-2.7-1.3c-0.7,0-1.3,0.1-1.7,0.4
		c-0.4,0.3-0.8,0.6-1,1c-0.2,0.4-0.4,0.9-0.5,1.4c-0.1,0.5-0.1,1.1-0.1,1.7c0,0.7,0,1.3,0.1,1.8c0,0.5,0.2,0.9,0.4,1.2
		c0.2,0.3,0.5,0.7,0.9,0.9c0.4,0.3,0.9,0.5,1.6,0.8l3.9,1.5c1.1,0.4,2,0.9,2.7,1.5c0.7,0.6,1.2,1.3,1.6,2c0.4,0.8,0.6,1.7,0.8,2.7
		c0.1,1,0.2,2.2,0.2,3.4c0,1.5-0.1,2.9-0.4,4.1c-0.3,1.3-0.8,2.4-1.5,3.3c-0.7,0.9-1.6,1.6-2.7,2.2c-1.1,0.5-2.5,0.8-4.1,0.8
		c-1.2,0-2.4-0.2-3.4-0.6c-1.1-0.4-2-1-2.7-1.8c-0.8-0.7-1.4-1.6-1.8-2.6c-0.4-1-0.7-2.1-0.7-3.3v-1.9h5v1.6c0,0.9,0.3,1.8,0.8,2.5
		c0.5,0.7,1.5,1.1,2.7,1.1c0.9,0,1.5-0.1,2-0.4c0.5-0.2,0.8-0.6,1.1-1c0.2-0.4,0.4-1,0.5-1.7c0.1-0.7,0.1-1.4,0.1-2.2
		c0-0.9,0-1.7-0.1-2.3c-0.1-0.6-0.2-1.1-0.4-1.4c-0.2-0.4-0.5-0.7-0.9-0.9c-0.4-0.2-0.9-0.5-1.5-0.7l-3.6-1.5
		c-2.2-0.9-3.6-2.1-4.4-3.5c-0.7-1.5-1.1-3.3-1.1-5.5c0-1.3,0.2-2.6,0.5-3.8c0.4-1.2,0.9-2.2,1.6-3.1c0.7-0.9,1.6-1.5,2.7-2.1
		c1.1-0.5,2.4-0.8,3.8-0.8c1.3,0,2.4,0.2,3.4,0.7c1,0.5,1.9,1.1,2.7,1.8c0.7,0.8,1.3,1.6,1.7,2.5c0.4,0.9,0.6,1.9,0.6,2.9V-70.8z"/>
	<path id="XMLID_123_" class="st3" d="M-235-76.2h-5.8V-81h16.7v4.7h-5.8v30.5h-5V-76.2z"/>
	<path id="XMLID_120_" class="st3" d="M-221.9-81h8.1c5.9,0,8.9,3.4,8.9,10.3c0,2-0.3,3.8-1,5.3c-0.6,1.5-1.8,2.6-3.4,3.5l5.4,16.1
		h-5.3l-4.7-15h-3v15h-5V-81z M-216.9-65.2h2.9c0.9,0,1.6-0.1,2.1-0.4c0.5-0.2,0.9-0.6,1.2-1.1c0.3-0.5,0.5-1,0.6-1.7
		c0.1-0.7,0.1-1.5,0.1-2.3c0-0.9,0-1.7-0.1-2.3c-0.1-0.7-0.3-1.3-0.6-1.7c-0.3-0.5-0.7-0.8-1.3-1.1c-0.6-0.2-1.3-0.3-2.2-0.3h-2.6
		V-65.2z"/>
	<path id="XMLID_118_" class="st3" d="M-200.9-81h15v4.7h-10v10.3h8.7v4.7h-8.7v10.3h10v5h-15V-81z"/>
	<path id="XMLID_115_" class="st3" d="M-177-81h4.2l7.9,35.2h-5l-1.5-7.6h-6.9l-1.5,7.6h-5L-177-81z M-174.9-70.8L-174.9-70.8
		l-2.6,12.8h5L-174.9-70.8z"/>
	<path id="XMLID_113_" class="st3" d="M-162.5-81h4.8l6.5,18.6h0.1l6.4-18.6h4.9v35.2h-5v-21.4h-0.1l-5,15.1h-2.5l-4.9-15.1h-0.1
		v21.4h-5V-81z"/>
</g>
<g id="XMLID_23_">
	<path id="XMLID_144_" class="st4" d="M80.1,65.4v1.9h-4.5v-1.9h-2.3l0,0c0,0-3.4,0.8-9.3,2.7c-5.9,1.9-14.8,8.7-14.8,13.2
		c0,4.5,0,28.5,0,28.5h1.4c0,0,1.8-18.1,7.3-24.8S73.3,82,73.3,82v27.9h1.7l7.1-44.5H80.1z"/>
	<polygon id="XMLID_145_" class="st4" points="85.5,26.9 83.7,25.3 82.7,26.7 84.9,27.8 73.8,63.9 77.2,63.9 77.2,65.8 78.5,65.8 
		78.5,63.9 82.4,63.9 82.4,64 87.1,34.5 95.7,25.5 95.7,21.9 	"/>
</g>
</svg>
