<?xml version="1.0" encoding="UTF-8" standalone="no"?>
<svg
   xmlns:dc="http://purl.org/dc/elements/1.1/"
   xmlns:cc="http://creativecommons.org/ns#"
   xmlns:rdf="http://www.w3.org/1999/02/22-rdf-syntax-ns#"
   xmlns:svg="http://www.w3.org/2000/svg"
   xmlns="http://www.w3.org/2000/svg"
   xmlns:sodipodi="http://sodipodi.sourceforge.net/DTD/sodipodi-0.dtd"
   xmlns:inkscape="http://www.inkscape.org/namespaces/inkscape"
   version="1.1"
   id="Layer_1"
   x="0px"
   y="0px"
   viewBox="0 0 136 136"
   style="enable-background:new 0 0 136 136;"
   xml:space="preserve"
   inkscape:version="0.91 r13725"
   sodipodi:docname="GIRAFENoName.svg"><metadata
     id="metadata12"><rdf:RDF><cc:Work
         rdf:about=""><dc:format>image/svg+xml</dc:format><dc:type
           rdf:resource="http://purl.org/dc/dcmitype/StillImage" /></cc:Work></rdf:RDF></metadata><defs
     id="defs10" /><sodipodi:namedview
     pagecolor="#ffffff"
     bordercolor="#666666"
     borderopacity="1"
     objecttolerance="10"
     gridtolerance="10"
     guidetolerance="10"
     inkscape:pageopacity="0"
     inkscape:pageshadow="2"
     inkscape:window-width="1362"
     inkscape:window-height="1056"
     id="namedview8"
     showgrid="false"
     inkscape:zoom="6.9411765"
     inkscape:cx="77.390933"
     inkscape:cy="76.230159"
     inkscape:window-x="65"
     inkscape:window-y="24"
     inkscape:window-maximized="0"
     inkscape:current-layer="Layer_1" /><style
     type="text/css"
     id="style3">
	.st0{fill:none;stroke:#00628B;stroke-width:2.169;stroke-miterlimit:10;}
	.st1{fill:none;stroke:#00628B;stroke-width:1.5724;stroke-miterlimit:10;}
	.st2{fill:none;stroke:#00628B;stroke-width:1.5337;stroke-miterlimit:10;}
	.st3{fill:#00628B;}
	.st4{fill:#F49600;}
	.st5{fill:none;stroke:#00628B;stroke-width:2;stroke-miterlimit:10;}
	.st6{fill:#009FE3;}
</style><!--<rect id="XMLID_1_" width="136" height="136"/> --><g
     id="XMLID_23_"
     transform="matrix(1.5468027,0,0,1.5468027,-37.563714,-33.890234)"><path
       id="XMLID_144_"
       class="st4"
       d="m 80.1,65.4 0,1.9 -4.5,0 0,-1.9 -2.3,0 0,0 c 0,0 -3.4,0.8 -9.3,2.7 -5.9,1.9 -14.8,8.7 -14.8,13.2 0,4.5 0,28.5 0,28.5 l 1.4,0 c 0,0 1.8,-18.1 7.3,-24.8 5.5,-6.7 15.4,-3 15.4,-3 l 0,27.9 1.7,0 7.1,-44.5 -2,0 z"
       inkscape:connector-curvature="0"
       style="fill:#f49600" /><polygon
       id="XMLID_145_"
       class="st4"
       points="85.5,26.9 83.7,25.3 82.7,26.7 84.9,27.8 73.8,63.9 77.2,63.9 77.2,65.8 78.5,65.8 78.5,63.9 82.4,63.9 82.4,64 87.1,34.5 95.7,25.5 95.7,21.9 "
       style="fill:#f49600" /></g></svg>