<?xml version="1.0" encoding="utf-8"?>
<!-- Generator: Adobe Illustrator 19.0.0, SVG Export Plug-In . SVG Version: 6.00 Build 0)  -->
<svg version="1.1" id="Layer_1" xmlns="http://www.w3.org/2000/svg" xmlns:xlink="http://www.w3.org/1999/xlink" x="0px" y="0px"
	 viewBox="0 0 136 165.2" style="enable-background:new 0 0 136 165.2;" xml:space="preserve">
<style type="text/css">
	.st0{fill:#9B9B9A;}
</style>
<!--<g id="XMLID_1_">-->
	<!--<path id="XMLID_2_" class="st0" d="M34.1,140.2c-0.9,0.5-1.8,0.9-2.8,1.1c-1,0.2-2,0.3-2.9,0.3c-1.2,0-2.3-0.2-3.3-0.6-->
		<!--c-1-0.4-1.9-0.9-2.6-1.6c-0.7-0.7-1.3-1.6-1.7-2.5c-0.4-1-0.6-2.1-0.6-3.3c0-1.2,0.2-2.3,0.6-3.3c0.4-1,1-1.8,1.8-2.5-->
		<!--c0.7-0.7,1.6-1.2,2.6-1.6c1-0.4,2.1-0.6,3.2-0.6c1,0,2,0.2,2.9,0.5c0.9,0.3,1.8,0.8,2.5,1.6l-1.4,1.4c-0.5-0.6-1.1-1-1.9-1.3-->
		<!--c-0.7-0.3-1.5-0.5-2.3-0.5c-0.9,0-1.7,0.2-2.4,0.5c-0.7,0.3-1.4,0.8-2,1.3c-0.6,0.6-1,1.2-1.3,2c-0.3,0.8-0.5,1.6-0.5,2.5-->
		<!--c0,0.9,0.2,1.8,0.5,2.5c0.3,0.8,0.7,1.5,1.3,2c0.6,0.6,1.2,1,2,1.3c0.8,0.3,1.6,0.5,2.6,0.5c0.6,0,1.3-0.1,1.9-0.2-->
		<!--c0.7-0.2,1.3-0.4,1.9-0.7v-4.7h-3.5v-1.7h5.3V140.2z"/>-->
	<!--<path id="XMLID_4_" class="st0" d="M42.2,126h1.8v15.3h-1.8V126z"/>-->
	<!--<path id="XMLID_7_" class="st0" d="M52.2,126h3.9c0.7,0,1.5,0,2.2,0.1c0.7,0.1,1.4,0.3,2,0.6c0.6,0.3,1,0.7,1.4,1.3-->
		<!--c0.4,0.6,0.5,1.3,0.5,2.3c0,1.1-0.3,2-1,2.7s-1.6,1.1-2.8,1.3l4.3,7h-2.2l-4.1-6.9H54v6.9h-1.8V126z M54,132.7h1.6c0.5,0,1,0,1.6,0-->
		<!--s1-0.1,1.5-0.3c0.5-0.2,0.8-0.4,1.1-0.7s0.4-0.8,0.4-1.5c0-0.5-0.1-1-0.3-1.3c-0.2-0.3-0.5-0.6-0.9-0.8c-0.4-0.2-0.7-0.3-1.2-0.4-->
		<!--c-0.4-0.1-0.9-0.1-1.3-0.1H54V132.7z"/>-->
	<!--<path id="XMLID_10_" class="st0" d="M74.7,126h1.7l6.5,15.3h-2.1l-1.6-3.8h-7.6l-1.6,3.8h-2.1L74.7,126z M75.5,128.3L75.5,128.3-->
		<!--l-3.2,7.5h6.2L75.5,128.3z"/>-->
	<!--<path id="XMLID_13_" class="st0" d="M89.2,126h9.5v1.7H91v5.1h7.1v1.7H91v6.9h-1.8V126z"/>-->
	<!--<path id="XMLID_15_" class="st0" d="M105.6,126h9.6v1.7h-7.8v4.8h7.3v1.7h-7.3v5.4h8.2v1.7h-10V126z"/>-->
<!--</g>-->


<g id="XMLID_23_">
	<path id="XMLID_144_" class="st0" d="M80.1,65.4v1.9h-4.5v-1.9h-2.3l0,0c0,0-3.4,0.8-9.3,2.7c-5.9,1.9-14.8,8.7-14.8,13.2
		c0,4.5,0,28.5,0,28.5h1.4c0,0,1.8-18.1,7.3-24.8S73.3,82,73.3,82v27.9h1.7l7.1-44.5H80.1z"/>
	<polygon id="XMLID_145_" class="st0" points="85.5,26.9 83.7,25.3 82.7,26.7 84.9,27.8 73.8,63.9 77.2,63.9 77.2,65.8 78.5,65.8 
		78.5,63.9 82.4,63.9 82.4,64 87.1,34.5 95.7,25.5 95.7,21.9 	"/>
</g>
</svg>
