<?xml version="1.0" encoding="utf-8"?>
<!-- Generator: Adobe Illustrator 18.0.0, SVG Export Plug-In . SVG Version: 6.00 Build 0)  -->
<!DOCTYPE svg PUBLIC "-//W3C//DTD SVG 1.1//EN" "http://www.w3.org/Graphics/SVG/1.1/DTD/svg11.dtd">
<svg version="1.1" xmlns="http://www.w3.org/2000/svg" xmlns:xlink="http://www.w3.org/1999/xlink" x="0px" y="0px" width="248.4px"
	 height="81px" viewBox="0 0 248.4 81" enable-background="new 0 0 248.4 81" xml:space="preserve">
<g id="Layer_1">
	
		<radialGradient id="SVGID_1_" cx="106.4761" cy="-13.4211" r="303.6919" gradientTransform="matrix(0.9458 0 0 0.2815 24.1639 -5.4138)" gradientUnits="userSpaceOnUse">
		<stop  offset="0" style="stop-color:#0EA6E0"/>
		<stop  offset="0.7524" style="stop-color:#262151"/>
		<stop  offset="1" style="stop-color:#191130"/>
	</radialGradient>
	<rect fill="url(#SVGID_1_)" width="248.4" height="81"/>
	<g>
		<g>
			<path fill="#5298D3" d="M58.6,46c0.3,2,0.5,4,0.4,6.1c-0.2,5.3-1.7,10.5-4.3,15c4.1-5.1,6.4-11.5,6.6-18.2c0-1.5,0-2.9-0.2-4.3
				C60.3,45.1,59.5,45.6,58.6,46z"/>
			<path fill="#00A3E2" d="M28.1,19.3c8.5,0.3,16.4,3.8,22.2,10c3.4,3.6,5.9,7.9,7.3,12.5c0.4-0.3,0.9-0.6,1.3-0.9
				c0.5-0.4,0.9-0.7,1.3-1.1c-3.5-12.7-15-22.2-28.8-22.6c-0.3,0-0.6,0-1,0c-6.3,0-12.4,2-17.6,5.5c4.4-2.2,9.3-3.4,14.2-3.4
				C27.5,19.3,27.8,19.3,28.1,19.3z"/>
		</g>
		<path fill="#FFFFFF" d="M76.2,26.6c-1.1-3.3-6.6-5.2-14.7-5.2c-3.4,0-7.7,0.3-11.5,1.1c0.4,0.3,1,0.7,1.5,1.2
			c0.5-0.1,1.1-0.2,1.6-0.2c8,0,13,2,14.2,5.5c1.2,3.5-1.6,8-7.7,12.7c-5.3,4.1-12.6,7.9-20.9,10.9v0.2c1.6-0.5,3.2-0.9,4.8-1.5
			c9.9-3.3,18.8-7.8,25-12.5C74.4,34.2,77.2,29.8,76.2,26.6z"/>
		<path fill="#FFFFFF" d="M41.5,46.1l-10.4-9c-0.1-0.1-0.3-0.2-0.4-0.2c-0.2,0-0.3,0.1-0.4,0.2l-10.4,9c-0.2,0.2-0.3,0.5-0.2,0.7
			c0.1,0.3,0.3,0.4,0.6,0.4h2.9c0.3,0,0.5,0.2,0.5,0.5v8.8c0,0.4,0.3,0.7,0.7,0.7H37c0.4,0,0.7-0.3,0.7-0.7v-8.8
			c0-0.3,0.2-0.5,0.5-0.5h2.9c0.3,0,0.5-0.2,0.6-0.4C41.8,46.6,41.7,46.3,41.5,46.1z M32.8,56.2h-4.2v-6h4.2V56.2z"/>
		<g>
			<path fill="#00A3E2" d="M96.9,50.1c-0.1,0.2-0.2,0.2-0.3,0.2H95c-0.2,0-0.2-0.1-0.3-0.2L89,31.4c0-0.1,0-0.1,0-0.1
				c0-0.2,0.1-0.3,0.3-0.3h2.3c0.2,0,0.3,0.1,0.3,0.2l4,14l3.9-14c0-0.2,0.1-0.2,0.3-0.2h2.3c0.2,0,0.3,0.1,0.3,0.3c0,0,0,0.1,0,0.1
				L96.9,50.1z"/>
			<path fill="#00A3E2" d="M116.7,50.3h-2.1c-0.2,0-0.3-0.1-0.3-0.3V31.3c0-0.2,0.1-0.3,0.3-0.3h2.1c0.2,0,0.3,0.1,0.3,0.3V50
				C117,50.2,116.9,50.3,116.7,50.3z"/>
			<path fill="#00A3E2" d="M136,50.6h-0.9c-3.3,0-5.5-2.1-5.5-5.2v-9.5c0-3.1,2.2-5.2,5.5-5.2h0.9c3.3,0,5.5,2.1,5.5,5.2v9.5
				C141.5,48.5,139.3,50.6,136,50.6z M138.7,35.9c0-1.5-1.2-2.8-2.8-2.8h-0.9c-1.5,0-2.8,1.2-2.8,2.8v9.5c0,1.5,1.2,2.8,2.8,2.8h0.9
				c1.5,0,2.8-1.2,2.8-2.8V35.9z"/>
			<path fill="#00A3E2" d="M163.4,33.4h-3.5c-0.2,0-0.3,0.1-0.3,0.3V50c0,0.2-0.1,0.3-0.3,0.3h-2.1c-0.2,0-0.3-0.1-0.3-0.3V33.7
				c0-0.2-0.1-0.3-0.3-0.3H153c-0.2,0-0.3-0.1-0.3-0.3v-1.8c0-0.2,0.1-0.3,0.3-0.3h10.4c0.2,0,0.3,0.1,0.3,0.3v1.8
				C163.7,33.3,163.6,33.4,163.4,33.4z"/>
			<path fill="#00A3E2" d="M186.6,50.3h-10.4c-0.2,0-0.3-0.1-0.3-0.3V31.3c0-0.2,0.1-0.3,0.3-0.3h10.4c0.2,0,0.3,0.1,0.3,0.3v1.8
				c0,0.2-0.1,0.3-0.3,0.3h-7.7c-0.2,0-0.3,0.1-0.3,0.3V39c0,0.2,0.1,0.3,0.3,0.3h6.3c0.2,0,0.3,0.1,0.3,0.3v1.8
				c0,0.2-0.1,0.3-0.3,0.3h-6.3c-0.2,0-0.3,0.1-0.3,0.3v5.5c0,0.2,0.1,0.3,0.3,0.3h7.7c0.2,0,0.3,0.1,0.3,0.3V50
				C186.9,50.2,186.8,50.3,186.6,50.3z"/>
			<path fill="#00A3E2" d="M209.9,47.4c0,0.2-0.4,1-1.3,1.9c-0.9,0.9-2.2,1.3-3.8,1.3h-0.9c-3.3,0-5.5-2.1-5.5-5.2v-9.5
				c0-3.1,2.2-5.2,5.5-5.2h0.9c3,0,5.1,1.9,5.1,3.1c0,0.1-0.1,0.2-0.2,0.2l-2,1c-0.1,0-0.1,0-0.2,0c-0.1,0-0.2-0.1-0.2-0.2
				c-0.7-1-1.2-1.7-2.5-1.7h-0.9c-1.5,0-2.8,1.2-2.8,2.8v9.5c0,1.5,1.2,2.8,2.8,2.8h0.9c0.7,0,1.4-0.3,1.7-0.6
				c0.7-0.8,1-1.3,1.2-1.3c0.1,0,0.1,0,0.2,0.1l1.9,1C209.9,47.3,209.9,47.4,209.9,47.4z"/>
			<path fill="#00A3E2" d="M234.4,50.3h-2.1c-0.2,0-0.3-0.1-0.3-0.3v-8c0-0.2-0.1-0.3-0.3-0.3h-6.3c-0.2,0-0.3,0.1-0.3,0.3v8
				c0,0.2-0.1,0.3-0.3,0.3h-2.1c-0.2,0-0.3-0.1-0.3-0.3V31.3c0-0.2,0.1-0.3,0.3-0.3h2.1c0.2,0,0.3,0.1,0.3,0.3V39
				c0,0.2,0.1,0.3,0.3,0.3h6.3c0.2,0,0.3-0.1,0.3-0.3v-7.7c0-0.2,0.1-0.3,0.3-0.3h2.1c0.2,0,0.3,0.1,0.3,0.3V50
				C234.7,50.2,234.6,50.3,234.4,50.3z"/>
		</g>
	</g>
</g>
<g id="Layer_2" display="none">
	<path display="inline" fill="#FFFFFF" d="M-30-63.5V151h325V-63.5H-30z M248.4,122.4H7V-33.5h241.4V122.4z"/>
</g>
</svg>
