<?xml version="1.0" encoding="utf-8"?>
<!-- Generator: Adobe Illustrator 18.0.0, SVG Export Plug-In . SVG Version: 6.00 Build 0)  -->
<!DOCTYPE svg PUBLIC "-//W3C//DTD SVG 1.1//EN" "http://www.w3.org/Graphics/SVG/1.1/DTD/svg11.dtd">
<svg version="1.1" xmlns="http://www.w3.org/2000/svg" xmlns:xlink="http://www.w3.org/1999/xlink" x="0px" y="0px" width="248.4px"
	 height="81px" viewBox="0 0 248.4 81" enable-background="new 0 0 248.4 81" xml:space="preserve">
<g id="Layer_1">
	<g>
		<g>
			<path fill="#006FB9" d="M58.6,45.7c0.3,2,0.4,4,0.4,6c-0.2,5.3-1.6,10.4-4.2,14.8c4-5.1,6.3-11.4,6.5-18c0-1.4,0-2.9-0.2-4.3
				C60.3,44.8,59.4,45.3,58.6,45.7z"/>
			<path fill="#006FB9" d="M28.4,19.3c8.4,0.3,16.2,3.8,22,9.9c3.4,3.6,5.8,7.8,7.2,12.3c0.4-0.3,0.9-0.6,1.3-0.9
				c0.5-0.3,0.9-0.7,1.3-1C56.7,27,45.3,17.6,31.7,17.2c-0.3,0-0.6,0-0.9,0c-6.2,0-12.3,1.9-17.4,5.4c4.4-2.2,9.2-3.3,14.1-3.3
				C27.8,19.3,28.1,19.3,28.4,19.3z"/>
		</g>
		<path fill="#3ABFF0" d="M75.9,26.5c-1.1-3.2-6.5-5.2-14.5-5.2c-3.4,0-7.6,0.3-11.4,1c0.4,0.3,1,0.7,1.5,1.2
			c0.5-0.1,1.1-0.2,1.5-0.2c7.9,0,12.9,1.9,14,5.5c1.2,3.4-1.5,7.9-7.6,12.5c-5.2,4-12.5,7.8-20.6,10.8v0.2c1.6-0.5,3.2-0.9,4.7-1.5
			c9.8-3.3,18.6-7.7,24.7-12.4C74.2,34,76.9,29.6,75.9,26.5z"/>
		<path fill="#3ABFF0" d="M41.7,45.8l-10.2-8.9c-0.1-0.1-0.3-0.2-0.4-0.2c-0.2,0-0.3,0.1-0.4,0.2l-10.2,8.9
			c-0.2,0.2-0.3,0.5-0.2,0.7c0.1,0.3,0.3,0.4,0.6,0.4h2.9c0.3,0,0.5,0.2,0.5,0.5v8.7c0,0.4,0.3,0.7,0.7,0.7h12.4
			c0.4,0,0.7-0.3,0.7-0.7v-8.7c0-0.3,0.2-0.5,0.5-0.5h2.9c0.3,0,0.5-0.2,0.6-0.4C41.9,46.2,41.9,45.9,41.7,45.8z M33,55.7h-4.1v-6
			H33V55.7z"/>
		<g>
			<path fill="#006FB9" d="M96.4,49.7c-0.1,0.2-0.2,0.2-0.3,0.2h-1.6c-0.2,0-0.2-0.1-0.3-0.2l-5.6-18.5c0-0.1,0-0.1,0-0.1
				c0-0.2,0.1-0.3,0.3-0.3h2.3c0.2,0,0.3,0.1,0.3,0.2l3.9,13.9L99.2,31c0-0.2,0.1-0.2,0.3-0.2h2.3c0.2,0,0.3,0.1,0.3,0.3
				c0,0,0,0.1,0,0.1L96.4,49.7z"/>
			<path fill="#006FB9" d="M115.9,49.9h-2.1c-0.2,0-0.3-0.1-0.3-0.3V31.1c0-0.2,0.1-0.3,0.3-0.3h2.1c0.2,0,0.3,0.1,0.3,0.3v18.5
				C116.2,49.8,116.1,49.9,115.9,49.9z"/>
			<path fill="#006FB9" d="M135,50.2h-0.9c-3.3,0-5.5-2.1-5.5-5.2v-9.4c0-3.1,2.2-5.2,5.5-5.2h0.9c3.3,0,5.5,2.1,5.5,5.2v9.4
				C140.5,48.1,138.3,50.2,135,50.2z M137.8,35.7c0-1.5-1.2-2.7-2.7-2.7h-0.9c-1.5,0-2.7,1.2-2.7,2.7v9.4c0,1.5,1.2,2.7,2.7,2.7h0.9
				c1.5,0,2.7-1.2,2.7-2.7V35.7z"/>
			<path fill="#006FB9" d="M162.2,33.2h-3.5c-0.2,0-0.3,0.1-0.3,0.3v16.1c0,0.2-0.1,0.3-0.3,0.3h-2.1c-0.2,0-0.3-0.1-0.3-0.3V33.5
				c0-0.2-0.1-0.3-0.3-0.3h-3.5c-0.2,0-0.3-0.1-0.3-0.3v-1.8c0-0.2,0.1-0.3,0.3-0.3h10.3c0.2,0,0.3,0.1,0.3,0.3v1.8
				C162.5,33.1,162.4,33.2,162.2,33.2z"/>
			<path fill="#006FB9" d="M185,49.9h-10.3c-0.2,0-0.3-0.1-0.3-0.3V31.1c0-0.2,0.1-0.3,0.3-0.3H185c0.2,0,0.3,0.1,0.3,0.3v1.8
				c0,0.2-0.1,0.3-0.3,0.3h-7.6c-0.2,0-0.3,0.1-0.3,0.3v5.2c0,0.2,0.1,0.3,0.3,0.3h6.2c0.2,0,0.3,0.1,0.3,0.3v1.8
				c0,0.2-0.1,0.3-0.3,0.3h-6.2c-0.2,0-0.3,0.1-0.3,0.3v5.5c0,0.2,0.1,0.3,0.3,0.3h7.6c0.2,0,0.3,0.1,0.3,0.3v1.8
				C185.3,49.8,185.2,49.9,185,49.9z"/>
			<path fill="#006FB9" d="M208.1,47.1c0,0.2-0.4,1-1.3,1.8c-0.9,0.8-2.2,1.3-3.8,1.3h-0.9c-3.3,0-5.5-2.1-5.5-5.2v-9.4
				c0-3.1,2.2-5.2,5.5-5.2h0.9c3,0,5,1.9,5,3.1c0,0.1-0.1,0.2-0.2,0.2l-1.9,1c-0.1,0-0.1,0-0.2,0c-0.1,0-0.2-0.1-0.2-0.2
				c-0.7-0.9-1.2-1.7-2.5-1.7h-0.9c-1.5,0-2.7,1.2-2.7,2.7v9.4c0,1.5,1.2,2.7,2.7,2.7h0.9c0.7,0,1.4-0.3,1.6-0.6
				c0.7-0.8,0.9-1.3,1.2-1.3c0.1,0,0.1,0,0.2,0.1l1.9,1C208.1,46.9,208.1,47,208.1,47.1z"/>
			<path fill="#006FB9" d="M232.3,49.9h-2.1c-0.2,0-0.3-0.1-0.3-0.3v-7.9c0-0.2-0.1-0.3-0.3-0.3h-6.2c-0.2,0-0.3,0.1-0.3,0.3v7.9
				c0,0.2-0.1,0.3-0.3,0.3h-2.1c-0.2,0-0.3-0.1-0.3-0.3V31.1c0-0.2,0.1-0.3,0.3-0.3h2.1c0.2,0,0.3,0.1,0.3,0.3v7.6
				c0,0.2,0.1,0.3,0.3,0.3h6.2c0.2,0,0.3-0.1,0.3-0.3v-7.6c0-0.2,0.1-0.3,0.3-0.3h2.1c0.2,0,0.3,0.1,0.3,0.3v18.5
				C232.6,49.8,232.5,49.9,232.3,49.9z"/>
		</g>
	</g>
</g>
<g id="Layer_2" display="none">
	<path display="inline" fill="#FFFFFF" d="M-30-63.5V151h325V-63.5H-30z M248.4,122.4H7V-33.5h241.4V122.4z"/>
</g>
</svg>
