<?xml version="1.0" encoding="utf-8"?>
<!-- Generator: Adobe Illustrator 19.0.0, SVG Export Plug-In . SVG Version: 6.00 Build 0)  -->
<svg version="1.1" id="Layer_1" xmlns="http://www.w3.org/2000/svg" xmlns:xlink="http://www.w3.org/1999/xlink" x="0px" y="0px"
	 viewBox="0 0 469 205.5" style="enable-background:new 0 0 469 205.5;" xml:space="preserve">
<style type="text/css">
	.st0{fill:none;stroke:#00628B;stroke-width:2;stroke-miterlimit:10;}
	.st1{fill:#009FE3;}
	.st2{fill:none;stroke:#00628B;stroke-width:2.169;stroke-miterlimit:10;}
	.st3{fill:#00628B;}
</style>
<line id="XMLID_141_" class="st0" x1="31.2" y1="104.6" x2="211.3" y2="104.6"/>
<line id="XMLID_164_" class="st0" x1="394.1" y1="104.6" x2="432.3" y2="104.6"/>
<line id="XMLID_140_" class="st0" x1="61.7" y1="31" x2="139.1" y2="108.4"/>
<line id="XMLID_139_" class="st0" x1="135.3" y1="104.6" x2="61.7" y2="178.2"/>
<circle id="XMLID_138_" class="st1" cx="135.3" cy="104.6" r="15.1"/>
<circle id="XMLID_137_" class="st1" cx="61.7" cy="31" r="9.6"/>
<circle id="XMLID_136_" class="st1" cx="31.2" cy="104.6" r="9.6"/>
<circle id="XMLID_135_" class="st1" cx="61.7" cy="178.2" r="9.6"/>
<circle id="XMLID_134_" class="st1" cx="432.3" cy="104.6" r="9.6"/>
<circle id="XMLID_133_" class="st2" cx="135.3" cy="104.6" r="56.5"/>
<g id="XMLID_17_">
	<path id="XMLID_131_" class="st3" d="M211.3,83.5h4.8l6.5,18.6h0.1l6.4-18.6h4.9v35.2h-5V97.3h-0.1l-5,15.1h-2.5l-4.9-15.1h-0.1
		v21.4h-5V83.5z"/>
	<path id="XMLID_129_" class="st3" d="M255.1,93.7h-5v-1.1c0-1.2-0.3-2.2-0.8-3c-0.5-0.8-1.5-1.3-2.7-1.3c-0.7,0-1.3,0.1-1.7,0.4
		c-0.4,0.3-0.8,0.6-1,1c-0.2,0.4-0.4,0.9-0.5,1.4c-0.1,0.5-0.1,1.1-0.1,1.7c0,0.7,0,1.3,0.1,1.8c0,0.5,0.2,0.9,0.4,1.2
		c0.2,0.3,0.5,0.7,0.9,0.9c0.4,0.3,0.9,0.5,1.6,0.8l3.9,1.5c1.1,0.4,2,0.9,2.7,1.5c0.7,0.6,1.2,1.3,1.6,2c0.4,0.8,0.6,1.7,0.8,2.7
		c0.1,1,0.2,2.2,0.2,3.4c0,1.5-0.1,2.9-0.4,4.1c-0.3,1.3-0.8,2.4-1.5,3.3c-0.7,0.9-1.6,1.6-2.7,2.2s-2.5,0.8-4.1,0.8
		c-1.2,0-2.4-0.2-3.4-0.6c-1.1-0.4-2-1-2.7-1.8c-0.8-0.7-1.4-1.6-1.8-2.6c-0.4-1-0.7-2.1-0.7-3.3v-1.9h5v1.6c0,0.9,0.3,1.8,0.8,2.5
		c0.5,0.7,1.5,1.1,2.7,1.1c0.9,0,1.5-0.1,2-0.4c0.5-0.2,0.8-0.6,1.1-1c0.2-0.4,0.4-1,0.5-1.7c0.1-0.7,0.1-1.4,0.1-2.2
		c0-0.9,0-1.7-0.1-2.3c-0.1-0.6-0.2-1.1-0.4-1.4c-0.2-0.4-0.5-0.7-0.9-0.9c-0.4-0.2-0.9-0.5-1.5-0.7l-3.6-1.5
		c-2.2-0.9-3.6-2.1-4.4-3.5c-0.7-1.5-1.1-3.3-1.1-5.5c0-1.3,0.2-2.6,0.5-3.8c0.4-1.2,0.9-2.2,1.6-3.1c0.7-0.9,1.6-1.5,2.7-2.1
		c1.1-0.5,2.4-0.8,3.8-0.8c1.3,0,2.4,0.2,3.4,0.7c1,0.5,1.9,1.1,2.7,1.8c0.7,0.8,1.3,1.6,1.7,2.5c0.4,0.9,0.6,1.9,0.6,2.9V93.7z"/>
	<path id="XMLID_127_" class="st3" d="M258.6,102.5h14.9v5h-14.9V102.5z"/>
	<path id="XMLID_125_" class="st3" d="M294.4,93.7h-5v-1.1c0-1.2-0.3-2.2-0.8-3c-0.5-0.8-1.5-1.3-2.7-1.3c-0.7,0-1.3,0.1-1.7,0.4
		c-0.4,0.3-0.8,0.6-1,1c-0.2,0.4-0.4,0.9-0.5,1.4c-0.1,0.5-0.1,1.1-0.1,1.7c0,0.7,0,1.3,0.1,1.8c0,0.5,0.2,0.9,0.4,1.2
		c0.2,0.3,0.5,0.7,0.9,0.9c0.4,0.3,0.9,0.5,1.6,0.8l3.9,1.5c1.1,0.4,2,0.9,2.7,1.5c0.7,0.6,1.2,1.3,1.6,2c0.4,0.8,0.6,1.7,0.8,2.7
		c0.1,1,0.2,2.2,0.2,3.4c0,1.5-0.1,2.9-0.4,4.1c-0.3,1.3-0.8,2.4-1.5,3.3c-0.7,0.9-1.6,1.6-2.7,2.2s-2.5,0.8-4.1,0.8
		c-1.2,0-2.4-0.2-3.4-0.6c-1.1-0.4-2-1-2.7-1.8c-0.8-0.7-1.4-1.6-1.8-2.6c-0.4-1-0.7-2.1-0.7-3.3v-1.9h5v1.6c0,0.9,0.3,1.8,0.8,2.5
		c0.5,0.7,1.5,1.1,2.7,1.1c0.9,0,1.5-0.1,2-0.4c0.5-0.2,0.8-0.6,1.1-1c0.2-0.4,0.4-1,0.5-1.7c0.1-0.7,0.1-1.4,0.1-2.2
		c0-0.9,0-1.7-0.1-2.3c-0.1-0.6-0.2-1.1-0.4-1.4c-0.2-0.4-0.5-0.7-0.9-0.9c-0.4-0.2-0.9-0.5-1.5-0.7l-3.6-1.5
		c-2.2-0.9-3.6-2.1-4.4-3.5c-0.7-1.5-1.1-3.3-1.1-5.5c0-1.3,0.2-2.6,0.5-3.8c0.4-1.2,0.9-2.2,1.6-3.1c0.7-0.9,1.6-1.5,2.7-2.1
		c1.1-0.5,2.4-0.8,3.8-0.8c1.3,0,2.4,0.2,3.4,0.7c1,0.5,1.9,1.1,2.7,1.8c0.7,0.8,1.3,1.6,1.7,2.5s0.6,1.9,0.6,2.9V93.7z"/>
	<path id="XMLID_123_" class="st3" d="M301.5,88.3h-5.8v-4.7h16.7v4.7h-5.8v30.5h-5V88.3z"/>
	<path id="XMLID_120_" class="st3" d="M314.6,83.5h8.1c5.9,0,8.9,3.4,8.9,10.3c0,2-0.3,3.8-1,5.3c-0.6,1.5-1.8,2.6-3.4,3.5l5.4,16.1
		h-5.3l-4.7-15h-3v15h-5V83.5z M319.6,99.3h2.9c0.9,0,1.6-0.1,2.1-0.4c0.5-0.2,0.9-0.6,1.2-1.1c0.3-0.5,0.5-1,0.6-1.7
		c0.1-0.7,0.1-1.5,0.1-2.3c0-0.9,0-1.7-0.1-2.3c-0.1-0.7-0.3-1.3-0.6-1.7c-0.3-0.5-0.7-0.8-1.3-1.1c-0.6-0.2-1.3-0.3-2.2-0.3h-2.6
		V99.3z"/>
	<path id="XMLID_118_" class="st3" d="M335.6,83.5h15v4.7h-10v10.3h8.7v4.7h-8.7v10.3h10v5h-15V83.5z"/>
	<path id="XMLID_115_" class="st3" d="M359.5,83.5h4.2l7.9,35.2h-5l-1.5-7.6h-6.9l-1.5,7.6h-5L359.5,83.5z M361.6,93.7L361.6,93.7
		l-2.6,12.8h5L361.6,93.7z"/>
	<path id="XMLID_113_" class="st3" d="M374,83.5h4.8l6.5,18.6h0.1l6.4-18.6h4.9v35.2h-5V97.3h-0.1l-5,15.1h-2.5l-4.9-15.1h-0.1v21.4
		h-5V83.5z"/>
</g>
</svg>
