<?xml version="1.0" encoding="UTF-8" standalone="no"?>
<svg
   xmlns:dc="http://purl.org/dc/elements/1.1/"
   xmlns:cc="http://creativecommons.org/ns#"
   xmlns:rdf="http://www.w3.org/1999/02/22-rdf-syntax-ns#"
   xmlns:svg="http://www.w3.org/2000/svg"
   xmlns="http://www.w3.org/2000/svg"
   xmlns:sodipodi="http://sodipodi.sourceforge.net/DTD/sodipodi-0.dtd"
   xmlns:inkscape="http://www.inkscape.org/namespaces/inkscape"
   viewBox="0 0 26.9 37.637501"
   height="37.637501"
   width="26.9"
   xml:space="preserve"
   version="1.1"
   id="svg2"
   inkscape:version="0.91 r13725"
   sodipodi:docname="switchboth.svg"><sodipodi:namedview
     pagecolor="#ffffff"
     bordercolor="#666666"
     borderopacity="1"
     objecttolerance="10"
     gridtolerance="10"
     guidetolerance="10"
     inkscape:pageopacity="0"
     inkscape:pageshadow="2"
     inkscape:window-width="1855"
     inkscape:window-height="1176"
     id="namedview33"
     showgrid="false"
     inkscape:zoom="6.270342"
     inkscape:cx="-40.614037"
     inkscape:cy="18.81875"
     inkscape:window-x="65"
     inkscape:window-y="24"
     inkscape:window-maximized="1"
     inkscape:current-layer="svg2" /><metadata
     id="metadata8"><rdf:RDF><cc:Work
         rdf:about=""><dc:format>image/svg+xml</dc:format><dc:type
           rdf:resource="http://purl.org/dc/dcmitype/StillImage" /></cc:Work></rdf:RDF></metadata><defs
     id="defs6"><clipPath
       id="clipPath18"
       clipPathUnits="userSpaceOnUse"><path
         id="path20"
         d="m 0,1.08984 215,0 0,299.91 -215,0 0,-299.91 z" /></clipPath></defs><g
     transform="matrix(1.25,0,0,-1.25,0,37.6375)"
     id="g10"
     style="fill:#a06f51;fill-opacity:1"><g
       transform="scale(0.1,0.1)"
       id="g12"
       style="fill:#a06f51;fill-opacity:1"><g
         id="g14"
         style="fill:#a06f51;fill-opacity:1"><g
           clip-path="url(#clipPath18)"
           id="g16"
           style="fill:#a06f51;fill-opacity:1"><path
             id="path22"
             style="fill:#a06f51;fill-opacity:1;fill-rule:nonzero;stroke:none"
             d="m 5.80469,4.82813 158.203,0 0,245.117 -158.203,0 0,-245.117 z" /><path
             id="path24"
             style="fill:#a06f51;stroke:#ffffff;stroke-width:4;stroke-linecap:butt;stroke-linejoin:miter;stroke-miterlimit:4;stroke-dasharray:none;stroke-opacity:1;fill-opacity:1"
             d="m 164.008,249.945 -158.20331,0 0,-245.11687 158.20331,0" /><path
             id="path26"
             style="fill:#a06f51;fill-opacity:1;fill-rule:nonzero;stroke:none"
             d="m 164.008,4.82813 49.14,49.14067 0,245.1172 -144.4527,0 -62.89061,-49.141 158.20331,0 0,-245.11687" /><path
             id="path28"
             style="fill:#a06f51;stroke:#ffffff;stroke-width:4;stroke-linecap:butt;stroke-linejoin:miter;stroke-miterlimit:4;stroke-dasharray:none;stroke-opacity:1;fill-opacity:1"
             d="m 164.008,4.82813 49.14,49.14067 0,245.1172 -144.4527,0 -62.89061,-49.141 158.20331,0 0,-245.11687 z" /><path
             id="path30"
             style="fill:#a06f51;fill-opacity:1;fill-rule:nonzero;stroke:none"
             d="m 164.008,249.945 49.14,49.141" /><path
             id="path32"
             style="fill:#a06f51;stroke:#ffffff;stroke-width:4;stroke-linecap:butt;stroke-linejoin:miter;stroke-miterlimit:4;stroke-dasharray:none;stroke-opacity:1;fill-opacity:1"
             d="m 164.008,249.945 49.14,49.141" /><path
             id="path34"
             style="fill:#a06f51;fill-opacity:1;fill-rule:nonzero;stroke:none"
             d="m 84.3516,249.945 0,-245.11687" /><path
             id="path36"
             style="fill:#a06f51;stroke:#ffffff;stroke-width:4;stroke-linecap:butt;stroke-linejoin:miter;stroke-miterlimit:4;stroke-dasharray:none;stroke-opacity:1;fill-opacity:1"
             d="m 84.3516,249.945 0,-245.11687" /><path
             id="path38"
             style="fill:#a06f51;fill-opacity:1;fill-rule:nonzero;stroke:none"
             d="m 86.8516,249.945 53.4574,49.141" /><path
             id="path40"
             style="fill:#a06f51;stroke:#ffffff;stroke-width:4;stroke-linecap:butt;stroke-linejoin:miter;stroke-miterlimit:4;stroke-dasharray:none;stroke-opacity:1;fill-opacity:1"
             d="m 86.8516,249.945 53.4574,49.141" /><path
             id="path42"
             style="fill:#a06f51;fill-opacity:1;fill-rule:nonzero;stroke:none"
             d="m 19.5078,195.082 53.125,0 0,32.5 -53.125,0 0,-32.5 z" /><path
             id="path44"
             style="fill:#a06f51;stroke:#ffffff;stroke-width:4;stroke-linecap:butt;stroke-linejoin:miter;stroke-miterlimit:4;stroke-dasharray:none;stroke-opacity:1;fill-opacity:1"
             d="m 19.5078,195.082 53.125,0 0,32.5 -53.125,0 0,-32.5 z" /><path
             id="path46"
             style="fill:#a06f51;fill-opacity:1;fill-rule:nonzero;stroke:none"
             d="m 95.6992,195.082 53.125,0 0,32.5 -53.125,0 0,-32.5 z" /><path
             id="path48"
             style="fill:#a06f51;stroke:#ffffff;stroke-width:4;stroke-linecap:butt;stroke-linejoin:miter;stroke-miterlimit:4;stroke-dasharray:none;stroke-opacity:1;fill-opacity:1"
             d="m 95.6992,195.082 53.125,0 0,32.5 -53.125,0 0,-32.5 z" /><path
             id="path50"
             style="fill:#a06f51;fill-opacity:1;fill-rule:nonzero;stroke:none"
             d="m 19.5078,75.082 53.125,0 0,32.5 -53.125,0 0,-32.5 z" /><path
             id="path52"
             style="fill:#a06f51;stroke:#ffffff;stroke-width:4;stroke-linecap:butt;stroke-linejoin:miter;stroke-miterlimit:4;stroke-dasharray:none;stroke-opacity:1;fill-opacity:1"
             d="m 19.5078,75.082 53.125,0 0,32.5 -53.125,0 0,-32.5 z" /><path
             id="path54"
             style="fill:#a06f51;fill-opacity:1;fill-rule:nonzero;stroke:none"
             d="m 95.6992,75.082 53.125,0 0,32.5 -53.125,0 0,-32.5 z" /><path
             id="path56"
             style="fill:#a06f51;stroke:#ffffff;stroke-width:4;stroke-linecap:butt;stroke-linejoin:miter;stroke-miterlimit:4;stroke-dasharray:none;stroke-opacity:1;fill-opacity:1"
             d="m 95.6992,75.082 53.125,0 0,32.5 -53.125,0 0,-32.5 z" /><path
             id="path58"
             style="fill:#a06f51;fill-opacity:1;fill-rule:nonzero;stroke:none"
             d="m 19.5078,22.582 53.125,0 0,32.5 -53.125,0 0,-32.5 z" /><path
             id="path60"
             style="fill:#a06f51;stroke:#ffffff;stroke-width:4;stroke-linecap:butt;stroke-linejoin:miter;stroke-miterlimit:4;stroke-dasharray:none;stroke-opacity:1;fill-opacity:1"
             d="m 19.5078,22.582 53.125,0 0,32.5 -53.125,0 0,-32.5 z" /><path
             id="path62"
             style="fill:#a06f51;fill-opacity:1;fill-rule:nonzero;stroke:none"
             d="m 95.6992,22.582 53.125,0 0,32.5 -53.125,0 0,-32.5 z" /><path
             id="path64"
             style="fill:#a06f51;stroke:#ffffff;stroke-width:4;stroke-linecap:butt;stroke-linejoin:miter;stroke-miterlimit:4;stroke-dasharray:none;stroke-opacity:1;fill-opacity:1"
             d="m 95.6992,22.582 53.125,0 0,32.5 -53.125,0 0,-32.5 z" /></g></g></g></g></svg>