<?xml version="1.0" encoding="UTF-8" standalone="no"?>
<svg
   xmlns:dc="http://purl.org/dc/elements/1.1/"
   xmlns:cc="http://creativecommons.org/ns#"
   xmlns:rdf="http://www.w3.org/1999/02/22-rdf-syntax-ns#"
   xmlns:svg="http://www.w3.org/2000/svg"
   xmlns="http://www.w3.org/2000/svg"
   xmlns:sodipodi="http://sodipodi.sourceforge.net/DTD/sodipodi-0.dtd"
   xmlns:inkscape="http://www.inkscape.org/namespaces/inkscape"
   viewBox="0 0 46.450001 31.475"
   height="31.475"
   width="46.450001"
   xml:space="preserve"
   version="1.1"
   id="svg2"
   inkscape:version="0.91 r13725"
   sodipodi:docname="switch0 (copy).svg"><sodipodi:namedview
     pagecolor="#ffffff"
     bordercolor="#666666"
     borderopacity="1"
     objecttolerance="10"
     gridtolerance="10"
     guidetolerance="10"
     inkscape:pageopacity="0"
     inkscape:pageshadow="2"
     inkscape:window-width="1855"
     inkscape:window-height="1176"
     id="namedview19"
     showgrid="false"
     inkscape:zoom="6.4155004"
     inkscape:cx="23.225"
     inkscape:cy="15.7375"
     inkscape:window-x="65"
     inkscape:window-y="24"
     inkscape:window-maximized="1"
     inkscape:current-layer="svg2" /><metadata
     id="metadata8"><rdf:RDF><cc:Work
         rdf:about=""><dc:format>image/svg+xml</dc:format><dc:type
           rdf:resource="http://purl.org/dc/dcmitype/StillImage" /></cc:Work></rdf:RDF></metadata><defs
     id="defs6"><clipPath
       id="clipPath18"
       clipPathUnits="userSpaceOnUse"><path
         id="path20"
         d="m 0,251.797 370,0 0,-250.00012 -370,0 0,250.00012" /></clipPath></defs><path
     id="path22"
     style="fill:#c9302c;fill-opacity:1;fill-rule:nonzero;stroke:none"
     d="m 46.231875,9.189875 c 0,4.938 -10.292875,8.940375 -22.990625,8.940375 C 10.543463,18.13025 0.25,14.127875 0.25,9.189875 l 0,13.095675 c 0,4.9375 10.293463,8.940426 22.99125,8.940426 12.69775,0 22.990625,-4.002926 22.990625,-8.940426 l 0,-13.095675"
     inkscape:connector-curvature="0" /><path
     id="path24"
     style="fill:none;stroke:#ffffff;stroke-width:0.5;stroke-linecap:butt;stroke-linejoin:miter;stroke-miterlimit:4;stroke-dasharray:none;stroke-opacity:1"
     d="m 46.231875,9.189875 c 0,4.938 -10.292875,8.940375 -22.990625,8.940375 C 10.543463,18.13025 0.25,14.127875 0.25,9.189875 l 0,13.095675 c 0,4.9375 10.293463,8.940426 22.99125,8.940426 12.69775,0 22.990625,-4.002926 22.990625,-8.940426 l 0,-13.095675 z"
     inkscape:connector-curvature="0" /><path
     id="path26"
     style="fill:#c9302c;fill-opacity:1;fill-rule:nonzero;stroke:none"
     d="m 23.24125,18.13025 c 12.69775,0 22.990625,-4.002375 22.990625,-8.940375 0,-4.939 -10.292875,-8.9405 -22.990625,-8.9405 -12.697787,0 -22.99125,4.0015 -22.99125,8.9405 0,4.938 10.293463,8.940375 22.99125,8.940375"
     inkscape:connector-curvature="0" /><path
     id="path28"
     style="fill:none;stroke:#ffffff;stroke-width:0.5;stroke-linecap:butt;stroke-linejoin:miter;stroke-miterlimit:4;stroke-dasharray:none;stroke-opacity:1"
     d="m 23.24125,18.13025 c 12.69775,0 22.990625,-4.002375 22.990625,-8.940375 0,-4.939 -10.292875,-8.9405 -22.990625,-8.9405 -12.697787,0 -22.99125,4.0015 -22.99125,8.9405 0,4.938 10.293463,8.940375 22.99125,8.940375 z"
     inkscape:connector-curvature="0" /><path
     id="path30"
     style="fill:#ffffff;fill-opacity:1;fill-rule:nonzero;stroke:none"
     d="M 17.99075,5.69375 19.888625,8.541375 12.711,10.200625 14.27975,8.894375 3.1860375,6.998375 5.9692375,4.9125 16.673875,6.725 17.99075,5.69375"
     inkscape:connector-curvature="0" /><path
     id="path32"
     style="fill:#ffffff;fill-opacity:1;fill-rule:nonzero;stroke:none"
     d="M 28.090875,12.599 26.795375,9.6635 33.27,8.3695 32.1475,9.375375 42.9385,11.218625 40.349125,13.29 29.6225,11.27575 28.090875,12.599"
     inkscape:connector-curvature="0" /><path
     id="path34"
     style="fill:#ffffff;fill-opacity:1;fill-rule:nonzero;stroke:none"
     d="m 24.55075,4.138625 7.2525,-1.984875 0.08488,3.107875 -1.8125,-0.34575 -3.5385,2.936125 -3.378,-0.49325 3.653875,-2.871 -2.26225,-0.349125"
     inkscape:connector-curvature="0" /><path
     id="path36"
     style="fill:#ffffff;fill-opacity:1;fill-rule:nonzero;stroke:none"
     d="m 21.442875,15.27625 -6.90525,1.294 -0.258875,-3.193375 1.984375,0.430625 3.801875,-3.245625 3.36425,0.568875 -4.057625,3.54 2.07125,0.6055"
     inkscape:connector-curvature="0" /></svg>