<?xml version="1.0" encoding="UTF-8" standalone="no"?>
<svg
   xmlns:dc="http://purl.org/dc/elements/1.1/"
   xmlns:cc="http://creativecommons.org/ns#"
   xmlns:rdf="http://www.w3.org/1999/02/22-rdf-syntax-ns#"
   xmlns:svg="http://www.w3.org/2000/svg"
   xmlns="http://www.w3.org/2000/svg"
   xmlns:sodipodi="http://sodipodi.sourceforge.net/DTD/sodipodi-0.dtd"
   xmlns:inkscape="http://www.inkscape.org/namespaces/inkscape"
   viewBox="0 0 46.450001 31.475"
   height="31.475"
   width="46.450001"
   xml:space="preserve"
   version="1.1"
   id="svg2"
   inkscape:version="0.91 r13725"
   sodipodi:docname="switch0 (another copy).svg"><sodipodi:namedview
     pagecolor="#ffffff"
     bordercolor="#666666"
     borderopacity="1"
     objecttolerance="10"
     gridtolerance="10"
     guidetolerance="10"
     inkscape:pageopacity="0"
     inkscape:pageshadow="2"
     inkscape:window-width="1855"
     inkscape:window-height="1176"
     id="namedview19"
     showgrid="false"
     inkscape:zoom="6.4155004"
     inkscape:cx="23.069128"
     inkscape:cy="15.7375"
     inkscape:window-x="65"
     inkscape:window-y="24"
     inkscape:window-maximized="1"
     inkscape:current-layer="g10" /><metadata
     id="metadata8"><rdf:RDF><cc:Work
         rdf:about=""><dc:format>image/svg+xml</dc:format><dc:type
           rdf:resource="http://purl.org/dc/dcmitype/StillImage" /></cc:Work></rdf:RDF></metadata><defs
     id="defs6"><clipPath
       id="clipPath18"
       clipPathUnits="userSpaceOnUse"><path
         id="path20"
         d="m 0,251.797 370,0 0,-250.00012 -370,0 0,250.00012" /></clipPath></defs><g
     transform="matrix(1.25,0,0,-1.25,0,31.475)"
     id="g10"><path
       inkscape:connector-curvature="0"
       d="m 36.9855,17.8281 c 0,-3.9504 -8.2343,-7.1523 -18.3925,-7.1523 -10.15823,0 -18.393,3.2019 -18.393,7.1523 l 0,-10.47654 c 0,-3.95 8.23477,-7.152341 18.393,-7.152341 10.1582,0 18.3925,3.202341 18.3925,7.152341 l 0,10.47654"
       style="fill:#1abb9c;fill-opacity:1;fill-rule:nonzero;stroke:none"
       id="path22" /><path
       inkscape:connector-curvature="0"
       d="m 36.9855,17.8281 c 0,-3.9504 -8.2343,-7.1523 -18.3925,-7.1523 -10.15823,0 -18.393,3.2019 -18.393,7.1523 l 0,-10.47654 c 0,-3.95 8.23477,-7.152341 18.393,-7.152341 10.1582,0 18.3925,3.202341 18.3925,7.152341 l 0,10.47654 z"
       style="fill:none;stroke:#ffffff;stroke-width:0.40000001;stroke-linecap:butt;stroke-linejoin:miter;stroke-miterlimit:4;stroke-dasharray:none;stroke-opacity:1"
       id="path24" /><path
       inkscape:connector-curvature="0"
       d="m 18.593,10.6758 c 10.1582,0 18.3925,3.2019 18.3925,7.1523 0,3.9512 -8.2343,7.1524 -18.3925,7.1524 -10.15823,0 -18.393,-3.2012 -18.393,-7.1524 0,-3.9504 8.23477,-7.1523 18.393,-7.1523"
       style="fill:#1abb9c;fill-opacity:1;fill-rule:nonzero;stroke:none"
       id="path26" /><path
       inkscape:connector-curvature="0"
       d="m 18.593,10.6758 c 10.1582,0 18.3925,3.2019 18.3925,7.1523 0,3.9512 -8.2343,7.1524 -18.3925,7.1524 -10.15823,0 -18.393,-3.2012 -18.393,-7.1524 0,-3.9504 8.23477,-7.1523 18.393,-7.1523 z"
       style="fill:none;stroke:#ffffff;stroke-width:0.40000001;stroke-linecap:butt;stroke-linejoin:miter;stroke-miterlimit:4;stroke-dasharray:none;stroke-opacity:1"
       id="path28" /><path
       inkscape:connector-curvature="0"
       d="m 14.3926,20.625 1.5183,-2.2781 -5.7421,-1.3274 1.255,1.045 -8.87497,1.5168 2.22656,1.6687 8.56371,-1.45 1.0535,0.825"
       style="fill:#ffffff;fill-opacity:1;fill-rule:nonzero;stroke:none"
       id="path30" /><path
       inkscape:connector-curvature="0"
       d="m 22.4727,15.1008 -1.0364,2.3484 5.1797,1.0352 -0.898,-0.8047 8.6328,-1.4746 -2.0715,-1.6571 -8.5813,1.6114 -1.2253,-1.0586"
       style="fill:#ffffff;fill-opacity:1;fill-rule:nonzero;stroke:none"
       id="path32" /><path
       inkscape:connector-curvature="0"
       d="m 19.6406,21.8691 5.802,1.5879 0.0679,-2.4863 -1.45,0.2766 -2.8308,-2.3489 -2.7024,0.3946 2.9231,2.2968 -1.8098,0.2793"
       style="fill:#ffffff;fill-opacity:1;fill-rule:nonzero;stroke:none"
       id="path34" /><path
       inkscape:connector-curvature="0"
       d="m 17.1543,12.959 -5.5242,-1.0352 -0.2071,2.5547 1.5875,-0.3445 3.0415,2.5965 2.6914,-0.4551 -3.2461,-2.832 1.657,-0.4844"
       style="fill:#ffffff;fill-opacity:1;fill-rule:nonzero;stroke:none"
       id="path36" /></g></svg>