<?xml version="1.0" encoding="UTF-8" standalone="no"?>
<!DOCTYPE svg PUBLIC "-//W3C//DTD SVG 1.1//EN"
 "http://www.w3.org/Graphics/SVG/1.1/DTD/svg11.dtd">
<!-- Generated by graphviz version 2.36.0 (20140111.2315)
 -->
<!-- Title: %3 Pages: 1 -->
<svg width="819pt" height="737pt"
 viewBox="0.00 0.00 818.92 737.45" xmlns="http://www.w3.org/2000/svg" xmlns:xlink="http://www.w3.org/1999/xlink">
<g id="graph0" class="graph" transform="scale(1 1) rotate(0) translate(4 733.449)">
<title>%3</title>
<polygon fill="white" stroke="none" points="-4,4 -4,-733.449 814.921,-733.449 814.921,4 -4,4"/>
<!-- 0401 -->
<g id="node1" class="node"><title>0401</title>
<polygon fill="none" stroke="black" points="810.921,-111.574 738.921,-111.574 738.921,-75.5735 810.921,-75.5735 810.921,-111.574"/>
<text text-anchor="middle" x="774.921" y="-90.0735" font-family="Times,serif" font-size="15.00">0401</text>
</g>
<!-- 0402 -->
<g id="node2" class="node"><title>0402</title>
<polygon fill="none" stroke="#ff0000" points="690.773,-192.308 618.773,-192.308 618.773,-156.308 690.773,-156.308 690.773,-192.308"/>
<text text-anchor="middle" x="654.773" y="-170.808" font-family="Times,serif" font-size="15.00">0402</text>
</g>
<!-- 0401&#45;&#45;0402 -->
<g id="edge31" class="edge"><title>0401&#45;&#45;0402</title>
<path fill="none" stroke="black" stroke-width="3" d="M747.957,-111.692C728.17,-124.988 701.413,-142.968 681.646,-156.25"/>
</g>
<!-- 0403 -->
<g id="node3" class="node"><title>0403</title>
<polygon fill="none" stroke="#00ff00" points="651.381,-362.216 579.381,-362.216 579.381,-326.216 651.381,-326.216 651.381,-362.216"/>
<text text-anchor="middle" x="615.381" y="-340.716" font-family="Times,serif" font-size="15.00">0403</text>
</g>
<!-- 0402&#45;&#45;0403 -->
<g id="edge32" class="edge"><title>0402&#45;&#45;0403</title>
<path fill="none" stroke="black" stroke-width="3" d="M650.557,-192.491C642.975,-225.193 627.126,-293.556 619.566,-326.164"/>
</g>
<!-- CDN2 -->
<g id="node27" class="node"><title>CDN2</title>
<ellipse fill="red" stroke="black" cx="671.272" cy="-34.1638" rx="30.309" ry="30.309"/>
<ellipse fill="none" stroke="black" cx="671.272" cy="-34.1638" rx="34.3283" ry="34.3283"/>
<text text-anchor="middle" x="671.272" y="-31.0638" font-family="Times,serif" font-size="12.00">CDN2</text>
</g>
<!-- 0402&#45;&#45;CDN2 -->
<g id="edge44" class="edge"><title>0402&#45;&#45;CDN2</title>
<path fill="none" stroke="blue" d="M656.896,-156.273C659.507,-134.095 663.994,-95.984 667.262,-68.2257"/>
</g>
<!-- 0404 -->
<g id="node4" class="node"><title>0404</title>
<polygon fill="none" stroke="black" points="613.997,-505.146 541.997,-505.146 541.997,-469.146 613.997,-469.146 613.997,-505.146"/>
<text text-anchor="middle" x="577.997" y="-483.646" font-family="Times,serif" font-size="15.00">0404</text>
</g>
<!-- 0403&#45;&#45;0404 -->
<g id="edge33" class="edge"><title>0403&#45;&#45;0404</title>
<path fill="none" stroke="black" stroke-width="3" d="M610.646,-362.318C603.494,-389.661 590.01,-441.218 582.812,-468.74"/>
</g>
<!-- 0302 -->
<g id="node15" class="node"><title>0302</title>
<polygon fill="none" stroke="#00ff00" points="524.992,-259.875 456.992,-259.875 456.992,-223.875 524.992,-223.875 524.992,-259.875"/>
<text text-anchor="middle" x="490.992" y="-238.375" font-family="Times,serif" font-size="15.00">0302</text>
</g>
<!-- 0403&#45;&#45;0302 -->
<g id="edge52" class="edge"><title>0403&#45;&#45;0302</title>
<path fill="none" stroke="chartreuse" stroke-width="5" stroke-dasharray="5,2" d="M593.429,-326.155C570.831,-307.563 535.813,-278.752 513.143,-260.1"/>
<text text-anchor="middle" x="524.313" y="-296.55" font-family="Times,serif" font-size="12.00" fill="#0000cd">S3→VHG3</text>
</g>
<!-- S3 -->
<g id="node28" class="node"><title>S3</title>
<ellipse fill="green" stroke="black" cx="737.025" cy="-376.19" rx="18" ry="18"/>
<ellipse fill="none" stroke="black" cx="737.025" cy="-376.19" rx="22" ry="22"/>
<text text-anchor="middle" x="737.025" y="-373.09" font-family="Times,serif" font-size="12.00">S3</text>
</g>
<!-- 0403&#45;&#45;S3 -->
<g id="edge45" class="edge"><title>0403&#45;&#45;S3</title>
<path fill="none" stroke="blue" d="M651.549,-353.723C672.419,-359.208 697.951,-365.919 715.648,-370.571"/>
</g>
<!-- 0104 -->
<g id="node5" class="node"><title>0104</title>
<polygon fill="none" stroke="black" points="191.497,-716.968 119.497,-716.968 119.497,-680.968 191.497,-680.968 191.497,-716.968"/>
<text text-anchor="middle" x="155.497" y="-695.468" font-family="Times,serif" font-size="15.00">0104</text>
</g>
<!-- 0204 -->
<g id="node9" class="node"><title>0204</title>
<polygon fill="none" stroke="black" points="319.56,-641.596 247.56,-641.596 247.56,-605.596 319.56,-605.596 319.56,-641.596"/>
<text text-anchor="middle" x="283.56" y="-620.096" font-family="Times,serif" font-size="15.00">0204</text>
</g>
<!-- 0104&#45;&#45;0204 -->
<g id="edge10" class="edge"><title>0104&#45;&#45;0204</title>
<path fill="none" stroke="black" stroke-width="3" d="M186.171,-680.915C206.298,-669.069 232.526,-653.632 252.692,-641.763"/>
</g>
<!-- 0101 -->
<g id="node6" class="node"><title>0101</title>
<polygon fill="none" stroke="#ff0000" points="250.954,-236.199 178.954,-236.199 178.954,-200.199 250.954,-200.199 250.954,-236.199"/>
<text text-anchor="middle" x="214.954" y="-214.699" font-family="Times,serif" font-size="15.00">0101</text>
</g>
<!-- 0102 -->
<g id="node8" class="node"><title>0102</title>
<polygon fill="none" stroke="black" points="244.889,-391.027 172.889,-391.027 172.889,-355.027 244.889,-355.027 244.889,-391.027"/>
<text text-anchor="middle" x="208.889" y="-369.527" font-family="Times,serif" font-size="15.00">0102</text>
</g>
<!-- 0101&#45;&#45;0102 -->
<g id="edge1" class="edge"><title>0101&#45;&#45;0102</title>
<path fill="none" stroke="black" stroke-width="3" d="M214.247,-236.263C213.084,-265.937 210.783,-324.688 209.611,-354.598"/>
</g>
<!-- 0202 -->
<g id="node10" class="node"><title>0202</title>
<polygon fill="none" stroke="black" points="381.897,-331.583 309.897,-331.583 309.897,-295.583 381.897,-295.583 381.897,-331.583"/>
<text text-anchor="middle" x="345.897" y="-310.083" font-family="Times,serif" font-size="15.00">0202</text>
</g>
<!-- 0101&#45;&#45;0202 -->
<g id="edge3" class="edge"><title>0101&#45;&#45;0202</title>
<path fill="none" stroke="black" stroke-width="3" d="M239.892,-236.365C263.191,-253.337 297.783,-278.535 321.052,-295.485"/>
</g>
<!-- 0201 -->
<g id="node12" class="node"><title>0201</title>
<polygon fill="none" stroke="black" points="362.663,-147.425 290.663,-147.425 290.663,-111.425 362.663,-111.425 362.663,-147.425"/>
<text text-anchor="middle" x="326.663" y="-125.925" font-family="Times,serif" font-size="15.00">0201</text>
</g>
<!-- 0101&#45;&#45;0201 -->
<g id="edge2" class="edge"><title>0101&#45;&#45;0201</title>
<path fill="none" stroke="black" stroke-width="3" d="M237.83,-200.02C257.107,-184.701 284.55,-162.892 303.818,-147.58"/>
</g>
<!-- CDN3 -->
<g id="node17" class="node"><title>CDN3</title>
<ellipse fill="red" stroke="black" cx="124.833" cy="-137.955" rx="30.309" ry="30.309"/>
<ellipse fill="none" stroke="black" cx="124.833" cy="-137.955" rx="34.3283" ry="34.3283"/>
<text text-anchor="middle" x="124.833" y="-134.855" font-family="Times,serif" font-size="12.00">CDN3</text>
</g>
<!-- 0101&#45;&#45;CDN3 -->
<g id="edge34" class="edge"><title>0101&#45;&#45;CDN3</title>
<path fill="none" stroke="blue" d="M194.504,-199.991C181.417,-188.338 164.335,-173.128 150.361,-160.685"/>
</g>
<!-- 0103 -->
<g id="node7" class="node"><title>0103</title>
<polygon fill="none" stroke="#00ff00" points="182.681,-542.873 113.681,-542.873 113.681,-506.873 182.681,-506.873 182.681,-542.873"/>
<text text-anchor="middle" x="148.181" y="-521.373" font-family="Times,serif" font-size="15.00">0103</text>
</g>
<!-- 0103&#45;&#45;0104 -->
<g id="edge7" class="edge"><title>0103&#45;&#45;0104</title>
<path fill="none" stroke="black" stroke-width="3" d="M148.95,-543.175C150.359,-576.699 153.337,-647.571 154.738,-680.911"/>
</g>
<!-- 0103&#45;&#45;0102 -->
<g id="edge47" class="edge"><title>0103&#45;&#45;0102</title>
<path fill="none" stroke="chartreuse" stroke-width="5" stroke-dasharray="5,2" d="M155.383,-506.858C167.004,-477.791 189.772,-420.844 201.507,-391.492"/>
<text text-anchor="middle" x="136.402" y="-452.682" font-family="Times,serif" font-size="12.00" fill="#0000cd">VHG1→vCDN1</text>
</g>
<!-- 0103&#45;&#45;0204 -->
<g id="edge9" class="edge"><title>0103&#45;&#45;0204</title>
<path fill="none" stroke="black" stroke-width="3" d="M173.011,-542.98C197.285,-560.682 234.051,-587.493 258.428,-605.269"/>
</g>
<!-- 0203 -->
<g id="node11" class="node"><title>0203</title>
<polygon fill="none" stroke="#ff0000" points="358.995,-491.672 286.995,-491.672 286.995,-455.672 358.995,-455.672 358.995,-491.672"/>
<text text-anchor="middle" x="322.995" y="-470.172" font-family="Times,serif" font-size="15.00">0203</text>
</g>
<!-- 0103&#45;&#45;0203 -->
<g id="edge8" class="edge"><title>0103&#45;&#45;0203</title>
<path fill="none" stroke="black" stroke-width="3" d="M182.718,-514.757C212.769,-505.956 256.174,-493.243 286.724,-484.296"/>
</g>
<!-- 0103&#45;&#45;0203 -->
<g id="edge48" class="edge"><title>0103&#45;&#45;0203</title>
<path fill="none" stroke="chartreuse" stroke-width="5" stroke-dasharray="5,2" d="M182.718,-514.757C212.769,-505.956 256.174,-493.243 286.724,-484.296"/>
<text text-anchor="middle" x="195.534" y="-489.981" font-family="Times,serif" font-size="12.00" fill="#0000cd">VHG1→CDN1</text>
</g>
<!-- S1 -->
<g id="node18" class="node"><title>S1</title>
<ellipse fill="green" stroke="black" cx="49.3795" cy="-590.649" rx="18" ry="18"/>
<ellipse fill="none" stroke="black" cx="49.3795" cy="-590.649" rx="22" ry="22"/>
<text text-anchor="middle" x="49.3795" y="-587.549" font-family="Times,serif" font-size="12.00">S1</text>
</g>
<!-- 0103&#45;&#45;S1 -->
<g id="edge35" class="edge"><title>0103&#45;&#45;S1</title>
<path fill="none" stroke="blue" d="M120.921,-543.021C104.014,-554.276 82.7447,-568.436 67.8075,-578.381"/>
</g>
<!-- VHG1 -->
<g id="node19" class="node"><title>VHG1</title>
<ellipse fill="#f0ffff" stroke="black" cx="30.7794" cy="-485.163" rx="30.5603" ry="30.5603"/>
<text text-anchor="middle" x="30.7794" y="-482.063" font-family="Times,serif" font-size="12.00">VHG1</text>
</g>
<!-- 0103&#45;&#45;VHG1 -->
<g id="edge36" class="edge"><title>0103&#45;&#45;VHG1</title>
<path fill="none" stroke="blue" d="M113.591,-513.173C96.5467,-507.408 76.2193,-500.532 59.9696,-495.036"/>
</g>
<!-- 0102&#45;&#45;0103 -->
<g id="edge4" class="edge"><title>0102&#45;&#45;0103</title>
<path fill="none" stroke="black" stroke-width="3" d="M201.687,-391.042C190.066,-420.109 167.298,-477.056 155.563,-506.408"/>
</g>
<!-- 0102&#45;&#45;0202 -->
<g id="edge5" class="edge"><title>0102&#45;&#45;0202</title>
<path fill="none" stroke="black" stroke-width="3" d="M245.245,-357.253C265.223,-348.585 289.918,-337.871 309.847,-329.224"/>
</g>
<!-- 0102&#45;&#45;0202 -->
<g id="edge46" class="edge"><title>0102&#45;&#45;0202</title>
<path fill="none" stroke="chartreuse" stroke-width="5" stroke-dasharray="5,2" d="M245.245,-357.253C265.223,-348.585 289.918,-337.871 309.847,-329.224"/>
<text text-anchor="middle" x="235.564" y="-333.631" font-family="Times,serif" font-size="12.00" fill="#0000cd">VHG1→vCDN1</text>
</g>
<!-- 0102&#45;&#45;0203 -->
<g id="edge6" class="edge"><title>0102&#45;&#45;0203</title>
<path fill="none" stroke="black" stroke-width="3" d="M229.553,-391.253C250.233,-409.493 281.86,-437.389 302.485,-455.582"/>
</g>
<!-- 0304 -->
<g id="node13" class="node"><title>0304</title>
<polygon fill="none" stroke="#00ff00" points="483.869,-595.146 415.869,-595.146 415.869,-559.146 483.869,-559.146 483.869,-595.146"/>
<text text-anchor="middle" x="449.869" y="-573.646" font-family="Times,serif" font-size="15.00">0304</text>
</g>
<!-- 0204&#45;&#45;0304 -->
<g id="edge20" class="edge"><title>0204&#45;&#45;0304</title>
<path fill="none" stroke="black" stroke-width="3" d="M319.646,-613.517C348.211,-605.539 387.823,-594.475 415.839,-586.651"/>
</g>
<!-- 0202&#45;&#45;0203 -->
<g id="edge14" class="edge"><title>0202&#45;&#45;0203</title>
<path fill="none" stroke="black" stroke-width="3" d="M343.314,-331.636C338.916,-362.382 330.02,-424.571 325.604,-455.439"/>
</g>
<!-- 0303 -->
<g id="node14" class="node"><title>0303</title>
<polygon fill="none" stroke="black" points="497.377,-425.109 425.377,-425.109 425.377,-389.109 497.377,-389.109 497.377,-425.109"/>
<text text-anchor="middle" x="461.377" y="-403.609" font-family="Times,serif" font-size="15.00">0303</text>
</g>
<!-- 0202&#45;&#45;0303 -->
<g id="edge16" class="edge"><title>0202&#45;&#45;0303</title>
<path fill="none" stroke="black" stroke-width="3" d="M368.163,-331.616C388.481,-348.071 418.367,-372.275 438.786,-388.812"/>
</g>
<!-- 0202&#45;&#45;0302 -->
<g id="edge15" class="edge"><title>0202&#45;&#45;0302</title>
<path fill="none" stroke="black" stroke-width="3" d="M382.136,-295.673C404.967,-284.39 434.262,-269.912 456.71,-258.818"/>
</g>
<!-- 0202&#45;&#45;0302 -->
<g id="edge49" class="edge"><title>0202&#45;&#45;0302</title>
<path fill="none" stroke="chartreuse" stroke-width="5" stroke-dasharray="5,2" d="M382.136,-295.673C404.967,-284.39 434.262,-269.912 456.71,-258.818"/>
<text text-anchor="middle" x="377.567" y="-280.574" font-family="Times,serif" font-size="12.00" fill="#0000cd">VHG1→vCDN1</text>
</g>
<!-- 0203&#45;&#45;0204 -->
<g id="edge17" class="edge"><title>0203&#45;&#45;0204</title>
<path fill="none" stroke="black" stroke-width="3" d="M318.239,-491.756C310.659,-520.572 295.924,-576.591 288.334,-605.447"/>
</g>
<!-- 0203&#45;&#45;0304 -->
<g id="edge19" class="edge"><title>0203&#45;&#45;0304</title>
<path fill="none" stroke="black" stroke-width="3" d="M345.095,-491.696C368.24,-510.572 404.388,-540.053 427.597,-558.982"/>
</g>
<!-- 0203&#45;&#45;0303 -->
<g id="edge18" class="edge"><title>0203&#45;&#45;0303</title>
<path fill="none" stroke="black" stroke-width="3" d="M359.354,-456.183C379.694,-446.4 404.961,-434.246 425.262,-424.481"/>
</g>
<!-- CDN1 -->
<g id="node20" class="node"><title>CDN1</title>
<ellipse fill="red" stroke="black" cx="256.493" cy="-529.238" rx="30.309" ry="30.309"/>
<ellipse fill="none" stroke="black" cx="256.493" cy="-529.238" rx="34.3283" ry="34.3283"/>
<text text-anchor="middle" x="256.493" y="-526.138" font-family="Times,serif" font-size="12.00">CDN1</text>
</g>
<!-- 0203&#45;&#45;CDN1 -->
<g id="edge37" class="edge"><title>0203&#45;&#45;CDN1</title>
<path fill="none" stroke="blue" d="M301.22,-491.867C295.311,-496.804 288.85,-502.202 282.723,-507.322"/>
</g>
<!-- 0201&#45;&#45;0202 -->
<g id="edge11" class="edge"><title>0201&#45;&#45;0202</title>
<path fill="none" stroke="black" stroke-width="3" d="M328.578,-147.756C332.265,-183.055 340.31,-260.085 343.99,-295.326"/>
</g>
<!-- 0201&#45;&#45;0302 -->
<g id="edge13" class="edge"><title>0201&#45;&#45;0302</title>
<path fill="none" stroke="black" stroke-width="3" d="M353.066,-147.492C383.731,-168.476 434.018,-202.888 464.655,-223.853"/>
</g>
<!-- 0301 -->
<g id="node16" class="node"><title>0301</title>
<polygon fill="none" stroke="black" points="579.535,-100.625 507.535,-100.625 507.535,-64.6247 579.535,-64.6247 579.535,-100.625"/>
<text text-anchor="middle" x="543.535" y="-79.1247" font-family="Times,serif" font-size="15.00">0301</text>
</g>
<!-- 0201&#45;&#45;0301 -->
<g id="edge12" class="edge"><title>0201&#45;&#45;0301</title>
<path fill="none" stroke="black" stroke-width="3" d="M362.963,-121.591C403.117,-112.926 467.422,-99.0495 507.478,-90.4055"/>
</g>
<!-- 0304&#45;&#45;0404 -->
<g id="edge30" class="edge"><title>0304&#45;&#45;0404</title>
<path fill="none" stroke="black" stroke-width="3" d="M475.797,-558.934C498.027,-543.319 529.889,-520.939 552.107,-505.332"/>
</g>
<!-- 0304&#45;&#45;0203 -->
<g id="edge51" class="edge"><title>0304&#45;&#45;0203</title>
<path fill="none" stroke="chartreuse" stroke-width="5" stroke-dasharray="5,2" d="M427.769,-559.123C404.624,-540.246 368.477,-510.765 345.267,-491.837"/>
<text text-anchor="middle" x="347.542" y="-528.899" font-family="Times,serif" font-size="12.00" fill="#0000cd">VHG2→CDN1</text>
</g>
<!-- S4 -->
<g id="node24" class="node"><title>S4</title>
<ellipse fill="green" stroke="black" cx="505.676" cy="-689.561" rx="18" ry="18"/>
<ellipse fill="none" stroke="black" cx="505.676" cy="-689.561" rx="22" ry="22"/>
<text text-anchor="middle" x="505.676" y="-686.461" font-family="Times,serif" font-size="12.00">S4</text>
</g>
<!-- 0304&#45;&#45;S4 -->
<g id="edge41" class="edge"><title>0304&#45;&#45;S4</title>
<path fill="none" stroke="blue" d="M458.835,-595.208C468.941,-615.565 485.322,-648.562 495.791,-669.65"/>
</g>
<!-- vCDN2 -->
<g id="node25" class="node"><title>vCDN2</title>
<ellipse fill="#c1cdcd" stroke="black" cx="426.633" cy="-695.591" rx="33.7152" ry="33.7152"/>
<text text-anchor="middle" x="426.633" y="-692.491" font-family="Times,serif" font-size="12.00">vCDN2</text>
</g>
<!-- 0304&#45;&#45;vCDN2 -->
<g id="edge42" class="edge"><title>0304&#45;&#45;vCDN2</title>
<path fill="none" stroke="blue" d="M446.289,-595.394C442.801,-613.174 437.417,-640.62 433.165,-662.294"/>
</g>
<!-- VHG2 -->
<g id="node26" class="node"><title>VHG2</title>
<ellipse fill="#f0ffff" stroke="black" cx="560.835" cy="-635.409" rx="30.5603" ry="30.5603"/>
<text text-anchor="middle" x="560.835" y="-632.309" font-family="Times,serif" font-size="12.00">VHG2</text>
</g>
<!-- 0304&#45;&#45;VHG2 -->
<g id="edge43" class="edge"><title>0304&#45;&#45;VHG2</title>
<path fill="none" stroke="blue" d="M484.068,-595.103C499.861,-603.395 518.365,-613.111 533.249,-620.925"/>
</g>
<!-- 0303&#45;&#45;0403 -->
<g id="edge28" class="edge"><title>0303&#45;&#45;0403</title>
<path fill="none" stroke="black" stroke-width="3" d="M497.484,-392.363C522.111,-382.306 554.598,-369.039 579.233,-358.978"/>
</g>
<!-- 0303&#45;&#45;0404 -->
<g id="edge29" class="edge"><title>0303&#45;&#45;0404</title>
<path fill="none" stroke="black" stroke-width="3" d="M487.84,-425.271C506.926,-438.369 532.578,-455.974 551.639,-469.056"/>
</g>
<!-- 0303&#45;&#45;0304 -->
<g id="edge27" class="edge"><title>0303&#45;&#45;0304</title>
<path fill="none" stroke="black" stroke-width="3" d="M460.146,-425.306C457.931,-458.033 453.3,-526.448 451.091,-559.08"/>
</g>
<!-- 0302&#45;&#45;0402 -->
<g id="edge25" class="edge"><title>0302&#45;&#45;0402</title>
<path fill="none" stroke="black" stroke-width="3" d="M525.326,-227.711C552.622,-216.45 590.705,-200.739 618.497,-189.273"/>
</g>
<!-- 0302&#45;&#45;0402 -->
<g id="edge50" class="edge"><title>0302&#45;&#45;0402</title>
<path fill="none" stroke="chartreuse" stroke-width="5" stroke-dasharray="5,2" d="M525.326,-227.711C552.622,-216.45 590.705,-200.739 618.497,-189.273"/>
<text text-anchor="middle" x="532.725" y="-211.969" font-family="Times,serif" font-size="12.00" fill="#0000cd">VHG3→CDN2</text>
</g>
<!-- 0302&#45;&#45;0403 -->
<g id="edge26" class="edge"><title>0302&#45;&#45;0403</title>
<path fill="none" stroke="black" stroke-width="3" d="M512.944,-259.936C535.541,-278.528 570.56,-307.34 593.23,-325.991"/>
</g>
<!-- 0302&#45;&#45;0303 -->
<g id="edge24" class="edge"><title>0302&#45;&#45;0303</title>
<path fill="none" stroke="black" stroke-width="3" d="M487.709,-260.19C482.002,-292.035 470.316,-357.238 464.629,-388.965"/>
</g>
<!-- S2 -->
<g id="node21" class="node"><title>S2</title>
<ellipse fill="green" stroke="black" cx="588.512" cy="-246.524" rx="18" ry="18"/>
<ellipse fill="none" stroke="black" cx="588.512" cy="-246.524" rx="22" ry="22"/>
<text text-anchor="middle" x="588.512" y="-243.424" font-family="Times,serif" font-size="12.00">S2</text>
</g>
<!-- 0302&#45;&#45;S2 -->
<g id="edge38" class="edge"><title>0302&#45;&#45;S2</title>
<path fill="none" stroke="blue" d="M525.1,-243.501C538.831,-244.156 554.271,-244.892 566.478,-245.474"/>
</g>
<!-- vCDN1 -->
<g id="node22" class="node"><title>vCDN1</title>
<ellipse fill="#c1cdcd" stroke="black" cx="403.615" cy="-64.3364" rx="33.7152" ry="33.7152"/>
<text text-anchor="middle" x="403.615" y="-61.2364" font-family="Times,serif" font-size="12.00">vCDN1</text>
</g>
<!-- 0302&#45;&#45;vCDN1 -->
<g id="edge39" class="edge"><title>0302&#45;&#45;vCDN1</title>
<path fill="none" stroke="blue" d="M482.133,-223.875C467.208,-193.549 436.894,-131.956 418.607,-94.7997"/>
</g>
<!-- VHG3 -->
<g id="node23" class="node"><title>VHG3</title>
<ellipse fill="#f0ffff" stroke="black" cx="508.451" cy="-150.981" rx="30.5603" ry="30.5603"/>
<text text-anchor="middle" x="508.451" y="-147.881" font-family="Times,serif" font-size="12.00">VHG3</text>
</g>
<!-- 0302&#45;&#45;VHG3 -->
<g id="edge40" class="edge"><title>0302&#45;&#45;VHG3</title>
<path fill="none" stroke="blue" d="M494.525,-223.482C496.837,-211.447 499.913,-195.432 502.586,-181.516"/>
</g>
<!-- 0301&#45;&#45;0401 -->
<g id="edge22" class="edge"><title>0301&#45;&#45;0401</title>
<path fill="none" stroke="black" stroke-width="3" d="M579.689,-84.3355C623.031,-86.3864 695.241,-89.8032 738.64,-91.8568"/>
</g>
<!-- 0301&#45;&#45;0402 -->
<g id="edge23" class="edge"><title>0301&#45;&#45;0402</title>
<path fill="none" stroke="black" stroke-width="3" d="M565.512,-100.738C585.013,-116.812 613.354,-140.17 632.841,-156.232"/>
</g>
<!-- 0301&#45;&#45;0302 -->
<g id="edge21" class="edge"><title>0301&#45;&#45;0302</title>
<path fill="none" stroke="black" stroke-width="3" d="M544.58,-100.903C544.955,-114.853 544.567,-134.459 540.83,-151.206 534.728,-178.555 517.556,-206.241 505.071,-223.698"/>
</g>
</g>
</svg>
