<?xml version="1.0" encoding="UTF-8" standalone="no"?>
<!DOCTYPE svg PUBLIC "-//W3C//DTD SVG 1.1//EN"
        "http://www.w3.org/Graphics/SVG/1.1/DTD/svg11.dtd">
<!-- Generated by graphviz version 2.36.0 (20140111.2315)
 -->
<!-- Title: %3 Pages: 1 -->
<svg width="593pt" height="501pt"
     viewBox="0.00 0.00 592.94 500.94" xmlns="http://www.w3.org/2000/svg" xmlns:xlink="http://www.w3.org/1999/xlink">
    <g id="graph0" class="graph" transform="scale(1 1) rotate(0) translate(4 496.938)">
        <title>%3</title>
        <polygon fill="white" stroke="none" points="-4,4 -4,-496.938 588.94,-496.938 588.94,4 -4,4"/>
        <!-- 0101 -->
        <g id="node1" class="node">
            <title>0101</title>
            <polygon fill="none" stroke="#00ff00"
                     points="251.85,-143.562 179.85,-143.562 179.85,-107.562 251.85,-107.562 251.85,-143.562"/>
            <text text-anchor="middle" x="215.85" y="-122.062" font-family="Times,serif" font-size="15.00">0101</text>
        </g>
        <!-- 0102 -->
        <g id="node3" class="node">
            <title>0102</title>
            <polygon fill="none" stroke="#ff0000"
                     points="187.591,-294.342 115.591,-294.342 115.591,-258.342 187.591,-258.342 187.591,-294.342"/>
            <text text-anchor="middle" x="151.591" y="-272.842" font-family="Times,serif" font-size="15.00">0102</text>
        </g>
        <!-- 0101&#45;&#45;0102 -->
        <g id="edge1" class="edge">
            <title>0101&#45;&#45;0102</title>
            <path fill="none" stroke="black" stroke-width="3"
                  d="M208.099,-143.749C195.748,-172.73 171.738,-229.068 159.369,-258.09"/>
        </g>
        <!-- 0202 -->
        <g id="node4" class="node">
            <title>0202</title>
            <polygon fill="none" stroke="#ff0000"
                     points="353.219,-262.914 285.219,-262.914 285.219,-226.914 353.219,-226.914 353.219,-262.914"/>
            <text text-anchor="middle" x="319.219" y="-241.414" font-family="Times,serif" font-size="15.00">0202</text>
        </g>
        <!-- 0101&#45;&#45;0202 -->
        <g id="edge3" class="edge">
            <title>0101&#45;&#45;0202</title>
            <path fill="none" stroke="black" stroke-width="3"
                  d="M231.55,-143.689C250.978,-166.122 283.875,-204.105 303.371,-226.617"/>
        </g>
        <!-- 0101&#45;&#45;0202 -->
        <g id="edge23" class="edge">
            <title>0101&#45;&#45;0202</title>
            <path fill="none" stroke="chartreuse" stroke-width="5" stroke-dasharray="5,2"
                  d="M231.55,-143.689C250.978,-166.122 283.875,-204.105 303.371,-226.617"/>
            <text text-anchor="middle" x="238.435" y="-188.523" font-family="Times,serif" font-size="12.00"
                  fill="#0000cd">S1→VHG1
            </text>
        </g>
        <!-- 0201 -->
        <g id="node6" class="node">
            <title>0201</title>
            <polygon fill="none" stroke="black"
                     points="431.021,-113.195 359.021,-113.195 359.021,-77.1952 431.021,-77.1952 431.021,-113.195"/>
            <text text-anchor="middle" x="395.021" y="-91.6952" font-family="Times,serif" font-size="15.00">0201</text>
        </g>
        <!-- 0101&#45;&#45;0201 -->
        <g id="edge2" class="edge">
            <title>0101&#45;&#45;0201</title>
            <path fill="none" stroke="black" stroke-width="3"
                  d="M251.954,-118.75C269.716,-115.458 291.457,-111.517 310.993,-108.223 326.715,-105.573 344.126,-102.84 359.004,-100.566"/>
        </g>
        <!-- S1 -->
        <g id="node10" class="node">
            <title>S1</title>
            <ellipse fill="green" stroke="black" cx="158.789" cy="-22" rx="18" ry="18"/>
            <ellipse fill="none" stroke="black" cx="158.789" cy="-22" rx="22" ry="22"/>
            <text text-anchor="middle" x="158.789" y="-18.9" font-family="Times,serif" font-size="12.00">S1</text>
        </g>
        <!-- 0101&#45;&#45;S1 -->
        <g id="edge17" class="edge">
            <title>0101&#45;&#45;S1</title>
            <path fill="none" stroke="blue" d="M205.911,-107.523C195.757,-89.0941 180.038,-60.5663 169.585,-41.5933"/>
        </g>
        <!-- 0103 -->
        <g id="node2" class="node">
            <title>0103</title>
            <polygon fill="none" stroke="black"
                     points="143.695,-455.542 71.6955,-455.542 71.6955,-419.542 143.695,-419.542 143.695,-455.542"/>
            <text text-anchor="middle" x="107.695" y="-434.042" font-family="Times,serif" font-size="15.00">0103</text>
        </g>
        <!-- 0203 -->
        <g id="node5" class="node">
            <title>0203</title>
            <polygon fill="none" stroke="black"
                     points="286.006,-419.816 214.006,-419.816 214.006,-383.816 286.006,-383.816 286.006,-419.816"/>
            <text text-anchor="middle" x="250.006" y="-398.316" font-family="Times,serif" font-size="15.00">0203</text>
        </g>
        <!-- 0103&#45;&#45;0203 -->
        <g id="edge7" class="edge">
            <title>0103&#45;&#45;0203</title>
            <path fill="none" stroke="black" stroke-width="3"
                  d="M143.975,-428.435C165.386,-423.06 192.394,-416.28 213.793,-410.907"/>
        </g>
        <!-- 0102&#45;&#45;0103 -->
        <g id="edge4" class="edge">
            <title>0102&#45;&#45;0103</title>
            <path fill="none" stroke="black" stroke-width="3"
                  d="M146.641,-294.52C138.21,-325.48 121.159,-388.1 112.695,-419.183"/>
        </g>
        <!-- 0102&#45;&#45;0202 -->
        <g id="edge5" class="edge">
            <title>0102&#45;&#45;0202</title>
            <path fill="none" stroke="black" stroke-width="3"
                  d="M187.963,-269.522C216.85,-264.107 256.948,-256.589 285.202,-251.292"/>
        </g>
        <!-- 0102&#45;&#45;0203 -->
        <g id="edge6" class="edge">
            <title>0102&#45;&#45;0203</title>
            <path fill="none" stroke="black" stroke-width="3"
                  d="M165.901,-294.587C184.56,-318.376 217.011,-359.749 235.679,-383.549"/>
        </g>
        <!-- CDN2 -->
        <g id="node11" class="node">
            <title>CDN2</title>
            <ellipse fill="red" stroke="black" cx="34.1638" cy="-263.464" rx="30.309" ry="30.309"/>
            <ellipse fill="none" stroke="black" cx="34.1638" cy="-263.464" rx="34.3283" ry="34.3283"/>
            <text text-anchor="middle" x="34.1638" y="-260.364" font-family="Times,serif" font-size="12.00">CDN2</text>
        </g>
        <!-- 0102&#45;&#45;CDN2 -->
        <g id="edge18" class="edge">
            <title>0102&#45;&#45;CDN2</title>
            <path fill="none" stroke="blue" d="M115.401,-272.373C100.44,-270.732 83.1806,-268.84 68.4281,-267.222"/>
        </g>
        <!-- 0202&#45;&#45;0203 -->
        <g id="edge11" class="edge">
            <title>0202&#45;&#45;0203</title>
            <path fill="none" stroke="black" stroke-width="3"
                  d="M299.105,-263.198C282.937,-279.57 261.866,-305.22 255.223,-332.973 251.177,-349.876 250.041,-369.717 249.816,-383.745"/>
        </g>
        <!-- 0303 -->
        <g id="node7" class="node">
            <title>0303</title>
            <polygon fill="none" stroke="#00ff00"
                     points="457.037,-397.743 385.037,-397.743 385.037,-361.743 457.037,-361.743 457.037,-397.743"/>
            <text text-anchor="middle" x="421.037" y="-376.243" font-family="Times,serif" font-size="15.00">0303</text>
        </g>
        <!-- 0202&#45;&#45;0303 -->
        <g id="edge13" class="edge">
            <title>0202&#45;&#45;0303</title>
            <path fill="none" stroke="black" stroke-width="3"
                  d="M332.95,-263.098C352.383,-288.831 387.707,-335.606 407.198,-361.417"/>
        </g>
        <!-- 0302 -->
        <g id="node8" class="node">
            <title>0302</title>
            <polygon fill="none" stroke="black"
                     points="525.055,-233.508 453.055,-233.508 453.055,-197.508 525.055,-197.508 525.055,-233.508"/>
            <text text-anchor="middle" x="489.055" y="-212.008" font-family="Times,serif" font-size="15.00">0302</text>
        </g>
        <!-- 0202&#45;&#45;0302 -->
        <g id="edge12" class="edge">
            <title>0202&#45;&#45;0302</title>
            <path fill="none" stroke="black" stroke-width="3"
                  d="M353.587,-238.963C382.472,-233.962 423.624,-226.837 452.979,-221.754"/>
        </g>
        <!-- CDN1 -->
        <g id="node12" class="node">
            <title>CDN1</title>
            <ellipse fill="red" stroke="black" cx="310.653" cy="-143.985" rx="30.309" ry="30.309"/>
            <ellipse fill="none" stroke="black" cx="310.653" cy="-143.985" rx="34.3283" ry="34.3283"/>
            <text text-anchor="middle" x="310.653" y="-140.885" font-family="Times,serif" font-size="12.00">CDN1</text>
        </g>
        <!-- 0202&#45;&#45;CDN1 -->
        <g id="edge19" class="edge">
            <title>0202&#45;&#45;CDN1</title>
            <path fill="none" stroke="blue" d="M317.687,-226.87C316.542,-213.375 314.941,-194.517 313.556,-178.197"/>
        </g>
        <!-- vCDN1 -->
        <g id="node13" class="node">
            <title>vCDN1</title>
            <ellipse fill="#c1cdcd" stroke="black" cx="290.68" cy="-333.028" rx="33.7152" ry="33.7152"/>
            <text text-anchor="middle" x="290.68" y="-329.928" font-family="Times,serif" font-size="12.00">vCDN1</text>
        </g>
        <!-- 0202&#45;&#45;vCDN1 -->
        <g id="edge20" class="edge">
            <title>0202&#45;&#45;vCDN1</title>
            <path fill="none" stroke="blue" d="M313.305,-263.171C309.812,-273.959 305.286,-287.932 301.201,-300.544"/>
        </g>
        <!-- VHG1 -->
        <g id="node14" class="node">
            <title>VHG1</title>
            <ellipse fill="#f0ffff" stroke="black" cx="418.45" cy="-270.96" rx="30.5603" ry="30.5603"/>
            <text text-anchor="middle" x="418.45" y="-267.86" font-family="Times,serif" font-size="12.00">VHG1</text>
        </g>
        <!-- 0202&#45;&#45;VHG1 -->
        <g id="edge21" class="edge">
            <title>0202&#45;&#45;VHG1</title>
            <path fill="none" stroke="blue" d="M353.368,-253.878C364.805,-256.88 377.46,-260.201 388.547,-263.111"/>
        </g>
        <!-- 0203&#45;&#45;0303 -->
        <g id="edge14" class="edge">
            <title>0203&#45;&#45;0303</title>
            <path fill="none" stroke="black" stroke-width="3"
                  d="M286.278,-397.135C315.302,-393.389 355.808,-388.161 384.818,-384.417"/>
        </g>
        <!-- 0201&#45;&#45;0202 -->
        <g id="edge8" class="edge">
            <title>0201&#45;&#45;0202</title>
            <path fill="none" stroke="black" stroke-width="3"
                  d="M385.877,-113.255C371.308,-142.031 342.984,-197.974 328.394,-226.791"/>
        </g>
        <!-- 0201&#45;&#45;0302 -->
        <g id="edge10" class="edge">
            <title>0201&#45;&#45;0302</title>
            <path fill="none" stroke="black" stroke-width="3"
                  d="M409.099,-113.207C426.826,-135.889 457.108,-174.633 474.881,-197.373"/>
        </g>
        <!-- 0301 -->
        <g id="node9" class="node">
            <title>0301</title>
            <polygon fill="none" stroke="black"
                     points="584.94,-91.5267 512.94,-91.5267 512.94,-55.5267 584.94,-55.5267 584.94,-91.5267"/>
            <text text-anchor="middle" x="548.94" y="-70.0267" font-family="Times,serif" font-size="15.00">0301</text>
        </g>
        <!-- 0201&#45;&#45;0301 -->
        <g id="edge9" class="edge">
            <title>0201&#45;&#45;0301</title>
            <path fill="none" stroke="black" stroke-width="3"
                  d="M431.108,-90.1149C455.721,-86.6499 488.191,-82.0788 512.812,-78.6127"/>
        </g>
        <!-- 0303&#45;&#45;0202 -->
        <g id="edge24" class="edge">
            <title>0303&#45;&#45;0202</title>
            <path fill="none" stroke="chartreuse" stroke-width="5" stroke-dasharray="5,2"
                  d="M407.306,-361.559C387.873,-335.826 352.549,-289.051 333.058,-263.24"/>
            <text text-anchor="middle" x="399.204" y="-315.829" font-family="Times,serif" font-size="12.00"
                  fill="#0000cd">S2→VHG1
            </text>
        </g>
        <!-- S2 -->
        <g id="node15" class="node">
            <title>S2</title>
            <ellipse fill="green" stroke="black" cx="493.956" cy="-470.938" rx="18" ry="18"/>
            <ellipse fill="none" stroke="black" cx="493.956" cy="-470.938" rx="22" ry="22"/>
            <text text-anchor="middle" x="493.956" y="-467.838" font-family="Times,serif" font-size="12.00">S2</text>
        </g>
        <!-- 0303&#45;&#45;S2 -->
        <g id="edge22" class="edge">
            <title>0303&#45;&#45;S2</title>
            <path fill="none" stroke="blue" d="M435.444,-397.76C448.393,-413.955 467.289,-437.586 480.074,-453.577"/>
        </g>
        <!-- 0302&#45;&#45;0303 -->
        <g id="edge16" class="edge">
            <title>0302&#45;&#45;0303</title>
            <path fill="none" stroke="black" stroke-width="3"
                  d="M481.516,-233.711C468.442,-265.281 441.708,-329.832 428.61,-361.458"/>
        </g>
        <!-- 0301&#45;&#45;0302 -->
        <g id="edge15" class="edge">
            <title>0301&#45;&#45;0302</title>
            <path fill="none" stroke="black" stroke-width="3"
                  d="M541.233,-91.7976C529.735,-119.06 508.213,-170.086 496.732,-197.307"/>
        </g>
    </g>
</svg>
