<?xml version="1.0" encoding="UTF-8" standalone="no"?>
<!DOCTYPE svg PUBLIC "-//W3C//DTD SVG 1.1//EN"
 "http://www.w3.org/Graphics/SVG/1.1/DTD/svg11.dtd">
<!-- Generated by graphviz version 2.36.0 (20140111.2315)
 -->
<!-- Title: %3 Pages: 1 -->
<svg width="1029pt" height="1347pt"
 viewBox="0.00 0.00 1028.55 1347.08" xmlns="http://www.w3.org/2000/svg" xmlns:xlink="http://www.w3.org/1999/xlink">
<g id="graph0" class="graph" transform="scale(1 1) rotate(0) translate(4 1343.08)">
<title>%3</title>
<polygon fill="white" stroke="none" points="-4,4 -4,-1343.08 1024.55,-1343.08 1024.55,4 -4,4"/>
<!-- 24 -->
<g id="node1" class="node"><title>24</title>
<polygon fill="none" stroke="black" points="776.271,-704.099 704.271,-704.099 704.271,-668.099 776.271,-668.099 776.271,-704.099"/>
<text text-anchor="middle" x="740.271" y="-682.599" font-family="Times,serif" font-size="15.00">24</text>
</g>
<!-- 23 -->
<g id="node5" class="node"><title>23</title>
<polygon fill="none" stroke="#ff0000" points="820.384,-528.371 750.384,-528.371 750.384,-492.371 820.384,-492.371 820.384,-528.371"/>
<text text-anchor="middle" x="785.384" y="-506.871" font-family="Times,serif" font-size="15.00">23</text>
</g>
<!-- 24&#45;&#45;23 -->
<g id="edge54" class="edge"><title>24&#45;&#45;23</title>
<path fill="none" stroke="chartreuse" stroke-width="5" stroke-dasharray="5,2" d="M744.929,-667.955C753.596,-634.193 772.103,-562.103 780.751,-528.416"/>
<text text-anchor="middle" x="723.847" y="-601.557" font-family="Times,serif" font-size="12.00" fill="#0000cd">VHG1→CDN2</text>
</g>
<!-- 25 -->
<g id="node2" class="node"><title>25</title>
<polygon fill="none" stroke="black" points="533.917,-1339.08 464.917,-1339.08 464.917,-1303.08 533.917,-1303.08 533.917,-1339.08"/>
<text text-anchor="middle" x="499.417" y="-1317.58" font-family="Times,serif" font-size="15.00">25</text>
</g>
<!-- 27 -->
<g id="node3" class="node"><title>27</title>
<polygon fill="none" stroke="#00ff00" points="386.195,-708.193 315.195,-708.193 315.195,-672.193 386.195,-672.193 386.195,-708.193"/>
<text text-anchor="middle" x="350.695" y="-686.693" font-family="Times,serif" font-size="15.00">27</text>
</g>
<!-- 4 -->
<g id="node12" class="node"><title>4</title>
<polygon fill="none" stroke="black" points="409.52,-511.919 345.52,-511.919 345.52,-475.919 409.52,-475.919 409.52,-511.919"/>
<text text-anchor="middle" x="377.52" y="-490.419" font-family="Times,serif" font-size="15.00">4</text>
</g>
<!-- 27&#45;&#45;4 -->
<g id="edge55" class="edge"><title>27&#45;&#45;4</title>
<path fill="none" stroke="chartreuse" stroke-width="5" stroke-dasharray="5,2" d="M353.171,-672.08C358.281,-634.689 369.945,-549.342 375.05,-511.988"/>
<text text-anchor="middle" x="406.112" y="-595.42" font-family="Times,serif" font-size="12.00" fill="#0000cd">VHG1→vCDN1</text>
</g>
<!-- 27&#45;&#45;4 -->
<g id="edge56" class="edge"><title>27&#45;&#45;4</title>
<path fill="none" stroke="chartreuse" stroke-width="5" stroke-dasharray="5,2" d="M353.171,-672.08C358.281,-634.689 369.945,-549.342 375.05,-511.988"/>
<text text-anchor="middle" x="393.112" y="-582.42" font-family="Times,serif" font-size="12.00" fill="#0000cd">S3→VHG3</text>
</g>
<!-- S3 -->
<g id="node31" class="node"><title>S3</title>
<ellipse fill="green" stroke="black" cx="229.245" cy="-726.782" rx="18" ry="18"/>
<ellipse fill="none" stroke="black" cx="229.245" cy="-726.782" rx="22" ry="22"/>
<text text-anchor="middle" x="229.245" y="-723.682" font-family="Times,serif" font-size="12.00">S3</text>
</g>
<!-- 27&#45;&#45;S3 -->
<g id="edge38" class="edge"><title>27&#45;&#45;S3</title>
<path fill="none" stroke="blue" d="M314.913,-700.973C293.922,-707.297 268.118,-715.071 250.348,-720.425"/>
</g>
<!-- 21 -->
<g id="node4" class="node"><title>21</title>
<polygon fill="none" stroke="black" points="497.095,-1183.41 425.095,-1183.41 425.095,-1147.41 497.095,-1147.41 497.095,-1183.41"/>
<text text-anchor="middle" x="461.095" y="-1161.91" font-family="Times,serif" font-size="15.00">21</text>
</g>
<!-- 21&#45;&#45;25 -->
<g id="edge12" class="edge"><title>21&#45;&#45;25</title>
<path fill="none" stroke="black" stroke-width="3" d="M465.566,-1183.58C472.951,-1213.57 487.609,-1273.12 494.975,-1303.04"/>
</g>
<!-- 23&#45;&#45;24 -->
<g id="edge15" class="edge"><title>23&#45;&#45;24</title>
<path fill="none" stroke="black" stroke-width="3" d="M780.726,-528.515C772.059,-562.276 753.552,-634.367 744.904,-668.053"/>
</g>
<!-- 32 -->
<g id="node27" class="node"><title>32</title>
<polygon fill="none" stroke="black" points="732.101,-362.028 660.101,-362.028 660.101,-326.028 732.101,-326.028 732.101,-362.028"/>
<text text-anchor="middle" x="696.101" y="-340.528" font-family="Times,serif" font-size="15.00">32</text>
</g>
<!-- 23&#45;&#45;32 -->
<g id="edge16" class="edge"><title>23&#45;&#45;32</title>
<path fill="none" stroke="black" stroke-width="3" d="M775.659,-492.253C758.485,-460.255 722.98,-394.105 705.814,-362.124"/>
</g>
<!-- CDN2 -->
<g id="node30" class="node"><title>CDN2</title>
<ellipse fill="red" stroke="black" cx="904.86" cy="-539.499" rx="30.309" ry="30.309"/>
<ellipse fill="none" stroke="black" cx="904.86" cy="-539.499" rx="34.3283" ry="34.3283"/>
<text text-anchor="middle" x="904.86" y="-536.399" font-family="Times,serif" font-size="12.00">CDN2</text>
</g>
<!-- 23&#45;&#45;CDN2 -->
<g id="edge37" class="edge"><title>23&#45;&#45;CDN2</title>
<path fill="none" stroke="blue" d="M820.584,-518.953C836.691,-522.879 855.678,-527.508 871.549,-531.378"/>
</g>
<!-- 28 -->
<g id="node6" class="node"><title>28</title>
<polygon fill="none" stroke="black" points="398.99,-238.676 334.99,-238.676 334.99,-202.676 398.99,-202.676 398.99,-238.676"/>
<text text-anchor="middle" x="366.99" y="-217.176" font-family="Times,serif" font-size="15.00">28</text>
</g>
<!-- 37 -->
<g id="node25" class="node"><title>37</title>
<polygon fill="none" stroke="black" points="328.353,-91.4854 256.353,-91.4854 256.353,-55.4854 328.353,-55.4854 328.353,-91.4854"/>
<text text-anchor="middle" x="292.353" y="-69.9854" font-family="Times,serif" font-size="15.00">37</text>
</g>
<!-- 28&#45;&#45;37 -->
<g id="edge18" class="edge"><title>28&#45;&#45;37</title>
<path fill="none" stroke="black" stroke-width="3" d="M357.838,-202.627C343.513,-174.378 315.951,-120.022 301.58,-91.6814"/>
</g>
<!-- 29 -->
<g id="node7" class="node"><title>29</title>
<polygon fill="none" stroke="#ff0000" points="443.479,-335.707 371.479,-335.707 371.479,-299.707 443.479,-299.707 443.479,-335.707"/>
<text text-anchor="middle" x="407.479" y="-314.207" font-family="Times,serif" font-size="15.00">29</text>
</g>
<!-- CDN3 -->
<g id="node32" class="node"><title>CDN3</title>
<ellipse fill="red" stroke="black" cx="243.232" cy="-222.46" rx="30.309" ry="30.309"/>
<ellipse fill="none" stroke="black" cx="243.232" cy="-222.46" rx="34.3283" ry="34.3283"/>
<text text-anchor="middle" x="243.232" y="-219.36" font-family="Times,serif" font-size="12.00">CDN3</text>
</g>
<!-- 29&#45;&#45;CDN3 -->
<g id="edge39" class="edge"><title>29&#45;&#45;CDN3</title>
<path fill="none" stroke="blue" d="M376.199,-299.567C346.507,-282.349 302.198,-256.655 273.012,-239.73"/>
</g>
<!-- 0 -->
<g id="node8" class="node"><title>0</title>
<polygon fill="none" stroke="black" points="582.665,-280.135 513.665,-280.135 513.665,-244.135 582.665,-244.135 582.665,-280.135"/>
<text text-anchor="middle" x="548.165" y="-258.635" font-family="Times,serif" font-size="15.00">0</text>
</g>
<!-- 0&#45;&#45;28 -->
<g id="edge1" class="edge"><title>0&#45;&#45;28</title>
<path fill="none" stroke="black" stroke-width="3" d="M513.661,-254.239C480.704,-246.698 431.42,-235.42 399.236,-228.055"/>
</g>
<!-- 0&#45;&#45;32 -->
<g id="edge2" class="edge"><title>0&#45;&#45;32</title>
<path fill="none" stroke="black" stroke-width="3" d="M580.997,-280.31C605.512,-293.881 638.868,-312.345 663.361,-325.904"/>
</g>
<!-- 3 -->
<g id="node9" class="node"><title>3</title>
<polygon fill="none" stroke="#00ff00" points="247.83,-408.519 175.83,-408.519 175.83,-372.519 247.83,-372.519 247.83,-408.519"/>
<text text-anchor="middle" x="211.83" y="-387.019" font-family="Times,serif" font-size="15.00">3</text>
</g>
<!-- 3&#45;&#45;28 -->
<g id="edge21" class="edge"><title>3&#45;&#45;28</title>
<path fill="none" stroke="black" stroke-width="3" d="M228.435,-372.343C258.299,-339.653 320.728,-271.316 350.504,-238.721"/>
</g>
<!-- 5 -->
<g id="node11" class="node"><title>5</title>
<polygon fill="none" stroke="black" points="72,-440.023 0,-440.023 0,-404.023 72,-404.023 72,-440.023"/>
<text text-anchor="middle" x="36" y="-418.523" font-family="Times,serif" font-size="15.00">5</text>
</g>
<!-- 3&#45;&#45;5 -->
<g id="edge23" class="edge"><title>3&#45;&#45;5</title>
<path fill="none" stroke="black" stroke-width="3" d="M175.824,-396.97C145.582,-402.389 102.573,-410.095 72.2596,-415.526"/>
</g>
<!-- 3&#45;&#45;4 -->
<g id="edge22" class="edge"><title>3&#45;&#45;4</title>
<path fill="none" stroke="black" stroke-width="3" d="M240.691,-408.53C270.917,-427.392 318.124,-456.852 348.434,-475.768"/>
</g>
<!-- 3&#45;&#45;4 -->
<g id="edge51" class="edge"><title>3&#45;&#45;4</title>
<path fill="none" stroke="chartreuse" stroke-width="5" stroke-dasharray="5,2" d="M240.691,-408.53C270.917,-427.392 318.124,-456.852 348.434,-475.768"/>
<text text-anchor="middle" x="265.531" y="-445.529" font-family="Times,serif" font-size="12.00" fill="#0000cd">S2→VHG3</text>
</g>
<!-- S2 -->
<g id="node33" class="node"><title>S2</title>
<ellipse fill="green" stroke="black" cx="108.607" cy="-337.28" rx="18" ry="18"/>
<ellipse fill="none" stroke="black" cx="108.607" cy="-337.28" rx="22" ry="22"/>
<text text-anchor="middle" x="108.607" y="-334.18" font-family="Times,serif" font-size="12.00">S2</text>
</g>
<!-- 3&#45;&#45;S2 -->
<g id="edge40" class="edge"><title>3&#45;&#45;S2</title>
<path fill="none" stroke="blue" d="M176.883,-372.494C160.624,-364.108 141.892,-354.447 128.167,-347.368"/>
</g>
<!-- 2 -->
<g id="node10" class="node"><title>2</title>
<polygon fill="none" stroke="black" points="559.194,-181.708 487.194,-181.708 487.194,-145.708 559.194,-145.708 559.194,-181.708"/>
<text text-anchor="middle" x="523.194" y="-160.208" font-family="Times,serif" font-size="15.00">2</text>
</g>
<!-- 2&#45;&#45;29 -->
<g id="edge13" class="edge"><title>2&#45;&#45;29</title>
<path fill="none" stroke="black" stroke-width="3" d="M509.466,-181.978C487.195,-211.617 443.448,-269.837 421.189,-299.46"/>
</g>
<!-- 30 -->
<g id="node24" class="node"><title>30</title>
<polygon fill="none" stroke="#00ff00" points="735.307,-178.746 668.307,-178.746 668.307,-142.746 735.307,-142.746 735.307,-178.746"/>
<text text-anchor="middle" x="701.807" y="-157.246" font-family="Times,serif" font-size="15.00">30</text>
</g>
<!-- 2&#45;&#45;30 -->
<g id="edge14" class="edge"><title>2&#45;&#45;30</title>
<path fill="none" stroke="black" stroke-width="3" d="M559.339,-163.109C591.143,-162.581 637.09,-161.819 668.133,-161.304"/>
</g>
<!-- 36 -->
<g id="node26" class="node"><title>36</title>
<polygon fill="none" stroke="black" points="463.755,-36 391.755,-36 391.755,-0 463.755,-0 463.755,-36"/>
<text text-anchor="middle" x="427.755" y="-14.5" font-family="Times,serif" font-size="15.00">36</text>
</g>
<!-- 2&#45;&#45;36 -->
<g id="edge17" class="edge"><title>2&#45;&#45;36</title>
<path fill="none" stroke="black" stroke-width="3" d="M511.3,-145.549C493.011,-117.627 458.178,-64.4471 439.8,-36.3883"/>
</g>
<!-- 4&#45;&#45;27 -->
<g id="edge27" class="edge"><title>4&#45;&#45;27</title>
<path fill="none" stroke="black" stroke-width="3" d="M375.044,-512.032C369.934,-549.423 358.27,-634.77 353.165,-672.124"/>
</g>
<!-- 4&#45;&#45;29 -->
<g id="edge28" class="edge"><title>4&#45;&#45;29</title>
<path fill="none" stroke="black" stroke-width="3" d="M380.613,-475.725C386.369,-441.871 398.659,-369.581 404.402,-335.802"/>
</g>
<!-- 4&#45;&#45;29 -->
<g id="edge52" class="edge"><title>4&#45;&#45;29</title>
<path fill="none" stroke="chartreuse" stroke-width="5" stroke-dasharray="5,2" d="M380.613,-475.725C386.369,-441.871 398.659,-369.581 404.402,-335.802"/>
<text text-anchor="middle" x="431.513" y="-409.135" font-family="Times,serif" font-size="12.00" fill="#0000cd">VHG3→CDN3</text>
</g>
<!-- 6 -->
<g id="node14" class="node"><title>6</title>
<polygon fill="none" stroke="black" points="522.298,-596.293 452.298,-596.293 452.298,-560.293 522.298,-560.293 522.298,-596.293"/>
<text text-anchor="middle" x="487.298" y="-574.793" font-family="Times,serif" font-size="15.00">6</text>
</g>
<!-- 4&#45;&#45;6 -->
<g id="edge29" class="edge"><title>4&#45;&#45;6</title>
<path fill="none" stroke="black" stroke-width="3" d="M401.07,-512.019C419.592,-526.255 445.275,-545.995 463.787,-560.223"/>
</g>
<!-- 17 -->
<g id="node20" class="node"><title>17</title>
<polygon fill="none" stroke="black" points="348.271,-406.752 276.271,-406.752 276.271,-370.752 348.271,-370.752 348.271,-406.752"/>
<text text-anchor="middle" x="312.271" y="-385.252" font-family="Times,serif" font-size="15.00">17</text>
</g>
<!-- 4&#45;&#45;17 -->
<g id="edge26" class="edge"><title>4&#45;&#45;17</title>
<path fill="none" stroke="black" stroke-width="3" d="M366.154,-475.6C354.178,-456.298 335.433,-426.084 323.506,-406.861"/>
</g>
<!-- 16 -->
<g id="node21" class="node"><title>16</title>
<polygon fill="none" stroke="black" points="585.568,-455.161 513.568,-455.161 513.568,-419.161 585.568,-419.161 585.568,-455.161"/>
<text text-anchor="middle" x="549.568" y="-433.661" font-family="Times,serif" font-size="15.00">16</text>
</g>
<!-- 4&#45;&#45;16 -->
<g id="edge25" class="edge"><title>4&#45;&#45;16</title>
<path fill="none" stroke="black" stroke-width="3" d="M409.881,-483.243C439.375,-473.513 482.882,-459.161 513.486,-449.064"/>
</g>
<!-- vCDN1 -->
<g id="node38" class="node"><title>vCDN1</title>
<ellipse fill="#c1cdcd" stroke="black" cx="210.544" cy="-532.879" rx="33.7152" ry="33.7152"/>
<text text-anchor="middle" x="210.544" y="-529.779" font-family="Times,serif" font-size="12.00">vCDN1</text>
</g>
<!-- 4&#45;&#45;vCDN1 -->
<g id="edge45" class="edge"><title>4&#45;&#45;vCDN1</title>
<path fill="none" stroke="blue" d="M345.325,-501.431C316.137,-508.241 273.291,-518.238 243.783,-525.124"/>
</g>
<!-- VHG3 -->
<g id="node39" class="node"><title>VHG3</title>
<ellipse fill="#f0ffff" stroke="black" cx="316.961" cy="-583.21" rx="30.5603" ry="30.5603"/>
<text text-anchor="middle" x="316.961" y="-580.11" font-family="Times,serif" font-size="12.00">VHG3</text>
</g>
<!-- 4&#45;&#45;VHG3 -->
<g id="edge46" class="edge"><title>4&#45;&#45;VHG3</title>
<path fill="none" stroke="blue" d="M365.265,-511.988C356.348,-525.136 344.152,-543.118 334.246,-557.724"/>
</g>
<!-- 7 -->
<g id="node13" class="node"><title>7</title>
<polygon fill="none" stroke="black" points="660.89,-667.259 588.89,-667.259 588.89,-631.259 660.89,-631.259 660.89,-667.259"/>
<text text-anchor="middle" x="624.89" y="-645.759" font-family="Times,serif" font-size="15.00">7</text>
</g>
<!-- 7&#45;&#45;24 -->
<g id="edge31" class="edge"><title>7&#45;&#45;24</title>
<path fill="none" stroke="black" stroke-width="3" d="M661.081,-660.814C674.827,-665.203 690.474,-670.199 704.209,-674.584"/>
</g>
<!-- 6&#45;&#45;7 -->
<g id="edge30" class="edge"><title>6&#45;&#45;7</title>
<path fill="none" stroke="black" stroke-width="3" d="M522.374,-596.384C543.075,-607.061 569.188,-620.529 589.878,-631.201"/>
</g>
<!-- 9 -->
<g id="node15" class="node"><title>9</title>
<polygon fill="none" stroke="black" points="675.187,-854.36 603.187,-854.36 603.187,-818.36 675.187,-818.36 675.187,-854.36"/>
<text text-anchor="middle" x="639.187" y="-832.86" font-family="Times,serif" font-size="15.00">9</text>
</g>
<!-- 9&#45;&#45;24 -->
<g id="edge34" class="edge"><title>9&#45;&#45;24</title>
<path fill="none" stroke="black" stroke-width="3" d="M651.38,-818.235C670.809,-789.354 708.579,-733.209 728.035,-704.288"/>
</g>
<!-- 9&#45;&#45;24 -->
<g id="edge53" class="edge"><title>9&#45;&#45;24</title>
<path fill="none" stroke="chartreuse" stroke-width="5" stroke-dasharray="5,2" d="M651.38,-818.235C670.809,-789.354 708.579,-733.209 728.035,-704.288"/>
<text text-anchor="middle" x="650.697" y="-764.677" font-family="Times,serif" font-size="12.00" fill="#0000cd">VHG1→CDN2</text>
</g>
<!-- 15 -->
<g id="node18" class="node"><title>15</title>
<polygon fill="none" stroke="black" points="485.936,-865.917 423.936,-865.917 423.936,-829.917 485.936,-829.917 485.936,-865.917"/>
<text text-anchor="middle" x="454.936" y="-844.417" font-family="Times,serif" font-size="15.00">15</text>
</g>
<!-- 9&#45;&#45;15 -->
<g id="edge32" class="edge"><title>9&#45;&#45;15</title>
<path fill="none" stroke="black" stroke-width="3" d="M602.785,-838.643C568.7,-840.781 518.315,-843.942 486.056,-845.965"/>
</g>
<!-- 18 -->
<g id="node22" class="node"><title>18</title>
<polygon fill="none" stroke="black" points="807.85,-956.414 735.85,-956.414 735.85,-920.414 807.85,-920.414 807.85,-956.414"/>
<text text-anchor="middle" x="771.85" y="-934.914" font-family="Times,serif" font-size="15.00">18</text>
</g>
<!-- 9&#45;&#45;18 -->
<g id="edge33" class="edge"><title>9&#45;&#45;18</title>
<path fill="none" stroke="black" stroke-width="3" d="M662.599,-854.37C686.7,-872.91 724.048,-901.641 748.226,-920.241"/>
</g>
<!-- 13 -->
<g id="node16" class="node"><title>13</title>
<polygon fill="none" stroke="black" points="326.881,-1174.14 257.881,-1174.14 257.881,-1138.14 326.881,-1138.14 326.881,-1174.14"/>
<text text-anchor="middle" x="292.381" y="-1152.64" font-family="Times,serif" font-size="15.00">13</text>
</g>
<!-- 13&#45;&#45;21 -->
<g id="edge8" class="edge"><title>13&#45;&#45;21</title>
<path fill="none" stroke="black" stroke-width="3" d="M326.98,-1173.99C332.159,-1175.98 337.526,-1177.71 342.78,-1178.83 375.544,-1185.87 385.053,-1183.89 418.18,-1178.83 420.341,-1178.5 422.542,-1178.09 424.75,-1177.6"/>
</g>
<!-- 14 -->
<g id="node19" class="node"><title>14</title>
<polygon fill="none" stroke="black" points="414.98,-1175.63 345.98,-1175.63 345.98,-1139.63 414.98,-1139.63 414.98,-1175.63"/>
<text text-anchor="middle" x="380.48" y="-1154.13" font-family="Times,serif" font-size="15.00">14</text>
</g>
<!-- 13&#45;&#45;14 -->
<g id="edge7" class="edge"><title>13&#45;&#45;14</title>
<path fill="none" stroke="black" stroke-width="3" d="M326.947,-1156.73C333.117,-1156.83 339.548,-1156.94 345.724,-1157.05"/>
</g>
<!-- 12 -->
<g id="node17" class="node"><title>12</title>
<polygon fill="none" stroke="#00ff00" points="410.979,-1037.06 338.979,-1037.06 338.979,-1001.06 410.979,-1001.06 410.979,-1037.06"/>
<text text-anchor="middle" x="374.979" y="-1015.56" font-family="Times,serif" font-size="15.00">12</text>
</g>
<!-- 12&#45;&#45;21 -->
<g id="edge6" class="edge"><title>12&#45;&#45;21</title>
<path fill="none" stroke="black" stroke-width="3" d="M385.712,-1037.3C402.304,-1065.5 433.988,-1119.34 450.498,-1147.4"/>
</g>
<!-- 12&#45;&#45;13 -->
<g id="edge3" class="edge"><title>12&#45;&#45;13</title>
<path fill="none" stroke="black" stroke-width="3" d="M364.011,-1037.26C348.213,-1063.48 319.218,-1111.6 303.395,-1137.86"/>
</g>
<!-- 12&#45;&#45;15 -->
<g id="edge5" class="edge"><title>12&#45;&#45;15</title>
<path fill="none" stroke="black" stroke-width="3" d="M383.536,-1000.74C398.925,-967.802 431.096,-898.944 446.441,-866.1"/>
</g>
<!-- 12&#45;&#45;15 -->
<g id="edge47" class="edge"><title>12&#45;&#45;15</title>
<path fill="none" stroke="chartreuse" stroke-width="5" stroke-dasharray="5,2" d="M383.536,-1000.74C398.925,-967.802 431.096,-898.944 446.441,-866.1"/>
<text text-anchor="middle" x="386.005" y="-936.785" font-family="Times,serif" font-size="12.00" fill="#0000cd">S1→VHG1</text>
</g>
<!-- 12&#45;&#45;14 -->
<g id="edge4" class="edge"><title>12&#45;&#45;14</title>
<path fill="none" stroke="black" stroke-width="3" d="M375.698,-1037.17C376.753,-1063.73 378.706,-1112.95 379.761,-1139.51"/>
</g>
<!-- S1 -->
<g id="node28" class="node"><title>S1</title>
<ellipse fill="green" stroke="black" cx="245.808" cy="-1035.78" rx="18" ry="18"/>
<ellipse fill="none" stroke="black" cx="245.808" cy="-1035.78" rx="22" ry="22"/>
<text text-anchor="middle" x="245.808" y="-1032.68" font-family="Times,serif" font-size="12.00">S1</text>
</g>
<!-- 12&#45;&#45;S1 -->
<g id="edge35" class="edge"><title>12&#45;&#45;S1</title>
<path fill="none" stroke="blue" d="M338.654,-1023.76C315.821,-1026.72 287.116,-1030.43 267.715,-1032.94"/>
</g>
<!-- 15&#45;&#45;27 -->
<g id="edge9" class="edge"><title>15&#45;&#45;27</title>
<path fill="none" stroke="black" stroke-width="3" d="M442.978,-829.824C422.977,-799.562 382.956,-739.006 362.835,-708.561"/>
</g>
<!-- 15&#45;&#45;27 -->
<g id="edge48" class="edge"><title>15&#45;&#45;27</title>
<path fill="none" stroke="chartreuse" stroke-width="5" stroke-dasharray="5,2" d="M442.978,-829.824C422.977,-799.562 382.956,-739.006 362.835,-708.561"/>
<text text-anchor="middle" x="360.951" y="-772.661" font-family="Times,serif" font-size="12.00" fill="#0000cd">VHG1→vCDN1</text>
</g>
<!-- 15&#45;&#45;9 -->
<g id="edge49" class="edge"><title>15&#45;&#45;9</title>
<path fill="none" stroke="chartreuse" stroke-width="5" stroke-dasharray="5,2" d="M486.191,-845.957C518.533,-843.928 568.99,-840.763 603.03,-838.628"/>
<text text-anchor="middle" x="563.474" y="-832.732" font-family="Times,serif" font-size="12.00" fill="#0000cd">VHG1→CDN2</text>
</g>
<!-- VHG1 -->
<g id="node29" class="node"><title>VHG1</title>
<ellipse fill="#f0ffff" stroke="black" cx="375.323" cy="-890.105" rx="30.5603" ry="30.5603"/>
<text text-anchor="middle" x="375.323" y="-887.005" font-family="Times,serif" font-size="12.00">VHG1</text>
</g>
<!-- 15&#45;&#45;VHG1 -->
<g id="edge36" class="edge"><title>15&#45;&#45;VHG1</title>
<path fill="none" stroke="blue" d="M423.927,-864.349C416.942,-868.051 409.576,-871.954 402.749,-875.572"/>
</g>
<!-- 17&#45;&#45;28 -->
<g id="edge11" class="edge"><title>17&#45;&#45;28</title>
<path fill="none" stroke="black" stroke-width="3" d="M318.231,-370.445C328.784,-338.029 350.631,-270.923 361.12,-238.706"/>
</g>
<!-- 16&#45;&#45;32 -->
<g id="edge10" class="edge"><title>16&#45;&#45;32</title>
<path fill="none" stroke="black" stroke-width="3" d="M578.169,-418.983C603.988,-402.573 641.775,-378.556 667.572,-362.16"/>
</g>
<!-- 31 -->
<g id="node23" class="node"><title>31</title>
<polygon fill="none" stroke="#ff0000" points="901.537,-340.43 829.537,-340.43 829.537,-304.43 901.537,-304.43 901.537,-340.43"/>
<text text-anchor="middle" x="865.537" y="-318.93" font-family="Times,serif" font-size="15.00">31</text>
</g>
<!-- 31&#45;&#45;32 -->
<g id="edge20" class="edge"><title>31&#45;&#45;32</title>
<path fill="none" stroke="black" stroke-width="3" d="M829.188,-327.064C800.601,-330.708 760.962,-335.76 732.389,-339.402"/>
</g>
<!-- CDN1 -->
<g id="node37" class="node"><title>CDN1</title>
<ellipse fill="red" stroke="black" cx="986.389" cy="-298.756" rx="30.309" ry="30.309"/>
<ellipse fill="none" stroke="black" cx="986.389" cy="-298.756" rx="34.3283" ry="34.3283"/>
<text text-anchor="middle" x="986.389" y="-295.656" font-family="Times,serif" font-size="12.00">CDN1</text>
</g>
<!-- 31&#45;&#45;CDN1 -->
<g id="edge44" class="edge"><title>31&#45;&#45;CDN1</title>
<path fill="none" stroke="blue" d="M901.796,-315.327C917.926,-312.167 936.807,-308.469 952.634,-305.368"/>
</g>
<!-- 30&#45;&#45;32 -->
<g id="edge19" class="edge"><title>30&#45;&#45;32</title>
<path fill="none" stroke="black" stroke-width="3" d="M701.239,-178.99C700.145,-214.121 697.759,-290.785 696.667,-325.858"/>
</g>
<!-- 30&#45;&#45;32 -->
<g id="edge50" class="edge"><title>30&#45;&#45;32</title>
<path fill="none" stroke="chartreuse" stroke-width="5" stroke-dasharray="5,2" d="M701.239,-178.99C700.145,-214.121 697.759,-290.785 696.667,-325.858"/>
<text text-anchor="middle" x="659.952" y="-255.846" font-family="Times,serif" font-size="12.00" fill="#0000cd">VHG2→CDN1</text>
</g>
<!-- S4 -->
<g id="node34" class="node"><title>S4</title>
<ellipse fill="green" stroke="black" cx="686.702" cy="-36.6583" rx="18" ry="18"/>
<ellipse fill="none" stroke="black" cx="686.702" cy="-36.6583" rx="22" ry="22"/>
<text text-anchor="middle" x="686.702" y="-33.5583" font-family="Times,serif" font-size="12.00">S4</text>
</g>
<!-- 30&#45;&#45;S4 -->
<g id="edge41" class="edge"><title>30&#45;&#45;S4</title>
<path fill="none" stroke="blue" d="M699.611,-142.702C696.911,-120.521 692.329,-82.8796 689.412,-58.9221"/>
</g>
<!-- vCDN2 -->
<g id="node35" class="node"><title>vCDN2</title>
<ellipse fill="#c1cdcd" stroke="black" cx="819.961" cy="-136.789" rx="33.7152" ry="33.7152"/>
<text text-anchor="middle" x="819.961" y="-133.689" font-family="Times,serif" font-size="12.00">vCDN2</text>
</g>
<!-- 30&#45;&#45;vCDN2 -->
<g id="edge42" class="edge"><title>30&#45;&#45;vCDN2</title>
<path fill="none" stroke="blue" d="M735.349,-153.945C751.45,-150.68 770.685,-146.78 786.744,-143.524"/>
</g>
<!-- VHG2 -->
<g id="node36" class="node"><title>VHG2</title>
<ellipse fill="#f0ffff" stroke="black" cx="772.853" cy="-59.8169" rx="30.5603" ry="30.5603"/>
<text text-anchor="middle" x="772.853" y="-56.7169" font-family="Times,serif" font-size="12.00">VHG2</text>
</g>
<!-- 30&#45;&#45;VHG2 -->
<g id="edge43" class="edge"><title>30&#45;&#45;VHG2</title>
<path fill="none" stroke="blue" d="M714.509,-142.702C725.764,-126.712 742.321,-103.192 754.924,-85.2876"/>
</g>
<!-- 36&#45;&#45;37 -->
<g id="edge24" class="edge"><title>36&#45;&#45;37</title>
<path fill="none" stroke="black" stroke-width="3" d="M391.47,-32.8691C372.043,-40.83 348.181,-50.6081 328.739,-58.5753"/>
</g>
<!-- 32&#45;&#45;31 -->
<g id="edge57" class="edge"><title>32&#45;&#45;31</title>
<path fill="none" stroke="chartreuse" stroke-width="5" stroke-dasharray="5,2" d="M732.449,-339.395C761.037,-335.751 800.676,-330.698 829.249,-327.056"/>
<text text-anchor="middle" x="780.855" y="-323.625" font-family="Times,serif" font-size="12.00" fill="#0000cd">VHG2→CDN1</text>
</g>
</g>
</svg>
