<?xml version="1.0" encoding="UTF-8" standalone="no"?>
<!DOCTYPE svg PUBLIC "-//W3C//DTD SVG 1.1//EN"
 "http://www.w3.org/Graphics/SVG/1.1/DTD/svg11.dtd">
<!-- Generated by graphviz version 2.36.0 (20140111.2315)
 -->
<!-- Title: %3 Pages: 1 -->
<svg width="453pt" height="417pt"
 viewBox="0.00 0.00 452.53 416.53" xmlns="http://www.w3.org/2000/svg" xmlns:xlink="http://www.w3.org/1999/xlink">
<g id="graph0" class="graph" transform="scale(1 1) rotate(0) translate(4 412.53)">
<title>%3</title>
<polygon fill="white" stroke="none" points="-4,4 -4,-412.53 448.529,-412.53 448.529,4 -4,4"/>
<!-- 0101 -->
<g id="node1" class="node"><title>0101</title>
<polygon fill="none" stroke="#ff0000" points="155.016,-119.016 83.0159,-119.016 83.0159,-83.0159 155.016,-83.0159 155.016,-119.016"/>
<text text-anchor="middle" x="119.016" y="-97.5159" font-family="Times,serif" font-size="15.00">0101</text>
</g>
<!-- 0102 -->
<g id="node3" class="node"><title>0102</title>
<polygon fill="none" stroke="#00ff00" points="112.284,-264.594 40.2836,-264.594 40.2836,-228.594 112.284,-228.594 112.284,-264.594"/>
<text text-anchor="middle" x="76.2836" y="-243.094" font-family="Times,serif" font-size="15.00">0102</text>
</g>
<!-- 0101&#45;&#45;0102 -->
<g id="edge1" class="edge"><title>0101&#45;&#45;0102</title>
<path fill="none" stroke="black" stroke-width="3" d="M113.69,-119.159C105.502,-147.056 89.9053,-200.188 81.6764,-228.222"/>
</g>
<!-- 0202 -->
<g id="node4" class="node"><title>0202</title>
<polygon fill="none" stroke="#00ff00" points="258.265,-222.265 186.265,-222.265 186.265,-186.265 258.265,-186.265 258.265,-222.265"/>
<text text-anchor="middle" x="222.265" y="-200.765" font-family="Times,serif" font-size="15.00">0202</text>
</g>
<!-- 0101&#45;&#45;0202 -->
<g id="edge3" class="edge"><title>0101&#45;&#45;0202</title>
<path fill="none" stroke="black" stroke-width="3" d="M137.475,-119.475C156.268,-138.268 185.23,-167.23 203.966,-185.966"/>
</g>
<!-- 0201 -->
<g id="node6" class="node"><title>0201</title>
<polygon fill="none" stroke="black" points="300.594,-76.2837 228.594,-76.2837 228.594,-40.2837 300.594,-40.2837 300.594,-76.2837"/>
<text text-anchor="middle" x="264.594" y="-54.7837" font-family="Times,serif" font-size="15.00">0201</text>
</g>
<!-- 0101&#45;&#45;0201 -->
<g id="edge2" class="edge"><title>0101&#45;&#45;0201</title>
<path fill="none" stroke="black" stroke-width="3" d="M155.376,-90.343C177.693,-83.792 206.167,-75.4341 228.445,-68.8945"/>
</g>
<!-- 0103 -->
<g id="node2" class="node"><title>0103</title>
<polygon fill="none" stroke="#00ff00" points="72,-408.53 0,-408.53 0,-372.53 72,-372.53 72,-408.53"/>
<text text-anchor="middle" x="36" y="-387.03" font-family="Times,serif" font-size="15.00">0103</text>
</g>
<!-- 0203 -->
<g id="node5" class="node"><title>0203</title>
<polygon fill="none" stroke="#00ff00" points="215.936,-368.246 143.936,-368.246 143.936,-332.246 215.936,-332.246 215.936,-368.246"/>
<text text-anchor="middle" x="179.936" y="-346.746" font-family="Times,serif" font-size="15.00">0203</text>
</g>
<!-- 0103&#45;&#45;0203 -->
<g id="edge7" class="edge"><title>0103&#45;&#45;0203</title>
<path fill="none" stroke="black" stroke-width="3" d="M72.321,-380.364C94.2239,-374.234 122.02,-366.455 143.876,-360.338"/>
</g>
<!-- 0102&#45;&#45;0103 -->
<g id="edge4" class="edge"><title>0102&#45;&#45;0103</title>
<path fill="none" stroke="black" stroke-width="3" d="M71.1817,-264.823C63.4329,-292.51 48.7846,-344.85 41.0605,-372.448"/>
</g>
<!-- 0102&#45;&#45;0202 -->
<g id="edge5" class="edge"><title>0102&#45;&#45;0202</title>
<path fill="none" stroke="black" stroke-width="3" d="M112.369,-236.131C134.828,-229.618 163.613,-221.272 186.089,-214.755"/>
</g>
<!-- 0102&#45;&#45;0203 -->
<g id="edge6" class="edge"><title>0102&#45;&#45;0203</title>
<path fill="none" stroke="black" stroke-width="3" d="M94.3384,-264.649C113.247,-283.557 142.779,-313.089 161.74,-332.05"/>
</g>
<!-- 0202&#45;&#45;0203 -->
<g id="edge11" class="edge"><title>0202&#45;&#45;0203</title>
<path fill="none" stroke="black" stroke-width="3" d="M216.989,-222.458C208.878,-250.432 193.429,-303.712 185.278,-331.823"/>
</g>
<!-- 0303 -->
<g id="node7" class="node"><title>0303</title>
<polygon fill="none" stroke="#00ff00" points="361.514,-325.514 289.514,-325.514 289.514,-289.514 361.514,-289.514 361.514,-325.514"/>
<text text-anchor="middle" x="325.514" y="-304.014" font-family="Times,serif" font-size="15.00">0303</text>
</g>
<!-- 0202&#45;&#45;0303 -->
<g id="edge13" class="edge"><title>0202&#45;&#45;0303</title>
<path fill="none" stroke="black" stroke-width="3" d="M240.724,-222.724C259.517,-241.517 288.479,-270.479 307.215,-289.215"/>
</g>
<!-- 0302 -->
<g id="node8" class="node"><title>0302</title>
<polygon fill="none" stroke="#00ff00" points="404.246,-179.936 332.246,-179.936 332.246,-143.936 404.246,-143.936 404.246,-179.936"/>
<text text-anchor="middle" x="368.246" y="-158.436" font-family="Times,serif" font-size="15.00">0302</text>
</g>
<!-- 0202&#45;&#45;0302 -->
<g id="edge12" class="edge"><title>0202&#45;&#45;0302</title>
<path fill="none" stroke="black" stroke-width="3" d="M258.35,-193.801C280.809,-187.289 309.594,-178.943 332.07,-172.425"/>
</g>
<!-- 0203&#45;&#45;0303 -->
<g id="edge14" class="edge"><title>0203&#45;&#45;0303</title>
<path fill="none" stroke="black" stroke-width="3" d="M216.296,-339.573C238.613,-333.022 267.087,-324.664 289.365,-318.124"/>
</g>
<!-- 0201&#45;&#45;0202 -->
<g id="edge8" class="edge"><title>0201&#45;&#45;0202</title>
<path fill="none" stroke="black" stroke-width="3" d="M259.318,-76.4771C251.207,-104.451 235.758,-157.731 227.607,-185.842"/>
</g>
<!-- 0201&#45;&#45;0302 -->
<g id="edge10" class="edge"><title>0201&#45;&#45;0302</title>
<path fill="none" stroke="black" stroke-width="3" d="M282.649,-76.3385C301.557,-95.2471 331.089,-124.779 350.05,-143.74"/>
</g>
<!-- 0301 -->
<g id="node9" class="node"><title>0301</title>
<polygon fill="none" stroke="black" points="444.529,-36 372.529,-36 372.529,-0 444.529,-0 444.529,-36"/>
<text text-anchor="middle" x="408.529" y="-14.5" font-family="Times,serif" font-size="15.00">0301</text>
</g>
<!-- 0201&#45;&#45;0301 -->
<g id="edge9" class="edge"><title>0201&#45;&#45;0301</title>
<path fill="none" stroke="black" stroke-width="3" d="M300.915,-48.1184C322.818,-41.9884 350.614,-34.209 372.47,-28.0922"/>
</g>
<!-- 0302&#45;&#45;0303 -->
<g id="edge16" class="edge"><title>0302&#45;&#45;0303</title>
<path fill="none" stroke="black" stroke-width="3" d="M362.92,-180.079C354.732,-207.975 339.135,-261.108 330.906,-289.142"/>
</g>
<!-- 0301&#45;&#45;0302 -->
<g id="edge15" class="edge"><title>0301&#45;&#45;0302</title>
<path fill="none" stroke="black" stroke-width="3" d="M403.428,-36.2295C395.679,-63.9162 381.03,-116.256 373.306,-143.854"/>
</g>
</g>
</svg>
