<?xml version="1.0" encoding="utf-8"?>
<!-- Generator: Adobe Illustrator 18.0.0, SVG Export Plug-In . SVG Version: 6.00 Build 0)  -->
<!DOCTYPE svg PUBLIC "-//W3C//DTD SVG 1.1 Tiny//EN" "http://www.w3.org/Graphics/SVG/1.1/DTD/svg11-tiny.dtd">
<svg version="1.1" baseProfile="tiny" id="Layer_1" xmlns="http://www.w3.org/2000/svg" xmlns:xlink="http://www.w3.org/1999/xlink"
	 x="0px" y="0px" viewBox="0 0 106.9 20.6" xml:space="preserve">
<g>
	<path fill="#FFF0E6" d="M0.1,0.3h1.3v8.9h7V0.3h1.3v20.2H8.4V10.4h-7v10.1H0.1V0.3z"/>
	<path fill="#FFF0E6" d="M30,0.3h8.5v1.2h-6.4v7.7h4.6v1.2h-4.6v9h6.8v1.2h-8v-6.8h-4.3l-2.3,6.8H23L30,0.3z M30.9,12.6V1.4h-0.1
		L27,12.6H30.9z"/>
	<path fill="#FFF0E6" d="M51.4,0.3h1.2l2.9,13c0.4,1.6,0.8,3.6,1.1,5.4h0c0.3-1.7,0.7-3.5,1.1-5.4l2.9-13h1.2l-4.7,20.3h-1.1
		L51.4,0.3z"/>
	<path fill="#FFF0E6" d="M75.5,0.3h7.7v1.2h-6.4v7.7h4.6v1.2h-4.6v9h6.8v1.2h-8.1V0.3z"/>
	<path fill="#FFF0E6" d="M97.4,0.3h1.6l5.3,13.3c0.6,1.6,1.2,3,1.5,4h0V0.3h1.1v20.2h-1.1L100,5.9c-0.4-1-1.2-3.1-1.4-3.7h0v18.4
		h-1.1V0.3z"/>
</g>
</svg>
